<svg width="59" height="61" viewBox="0 0 59 61" fill="none" xmlns="http://www.w3.org/2000/svg">
<path d="M29.5001 53.2797C17.3313 53.2797 7.46729 43.0813 7.46729 30.5C7.46729 17.9188 17.3313 7.72034 29.5001 7.72034C41.6688 7.72034 51.5329 17.9188 51.5329 30.5C51.5329 43.0813 41.6688 53.2797 29.5001 53.2797ZM29.5001 10.1985C18.7142 10.1985 9.86416 19.3485 9.86416 30.5C9.86416 41.6516 18.7142 50.8016 29.5001 50.8016C40.286 50.8016 49.136 41.6516 49.136 30.5C49.136 19.3485 40.286 10.1985 29.5001 10.1985Z" fill="#AEEE6A"/>
<path d="M29.0393 43.5578L27.3799 41.7468L38.1658 30.5L27.3799 19.2531L29.0393 17.4421L41.6689 30.5L29.0393 43.5578Z" fill="white"/>
<path d="M39.9172 31.8344H17.7922V29.1656H39.9172V31.8344Z" fill="white"/>
</svg>
