<svg width="57" height="57" viewBox="0 0 57 57" fill="none" xmlns="http://www.w3.org/2000/svg">
<g clip-path="url(#clip0_0_455)">
<path d="M45.6712 36.2425L39.6387 35.5537C38.9294 35.4704 38.2104 35.549 37.5358 35.7834C36.8612 36.0179 36.2485 36.4022 35.7437 36.9075L31.3737 41.2775C24.6316 37.8485 19.1515 32.3684 15.7225 25.6262L20.1162 21.2325C21.1375 20.2112 21.6362 18.7862 21.47 17.3375L20.7812 11.3525C20.6466 10.1939 20.0906 9.12531 19.219 8.35013C18.3475 7.57496 17.2214 7.14736 16.055 7.14875H11.9462C9.26248 7.14875 7.02997 9.38124 7.19622 12.065C8.45497 32.3475 24.6762 48.545 44.935 49.8037C47.6187 49.97 49.8512 47.7375 49.8512 45.0537V40.945C49.875 38.5462 48.07 36.5275 45.6712 36.2425Z" fill="white"/>
</g>
<defs>
<clipPath id="clip0_0_455">
<rect width="57" height="57" fill="white"/>
</clipPath>
</defs>
</svg>
