<svg width="34" height="34" viewBox="0 0 34 34" fill="none" xmlns="http://www.w3.org/2000/svg">
<g clip-path="url(#clip0_0_43)">
<path d="M27.2423 21.6183L23.644 21.2075C23.2209 21.1578 22.792 21.2046 22.3896 21.3445C21.9872 21.4844 21.6217 21.7136 21.3207 22.015L18.714 24.6217C14.6923 22.5763 11.4235 19.3075 9.37815 15.2858L11.999 12.665C12.6081 12.0558 12.9056 11.2058 12.8065 10.3417L12.3956 6.77166C12.3153 6.08058 11.9837 5.44316 11.4638 4.98078C10.944 4.51839 10.2722 4.26334 9.57648 4.26416H7.12565C5.52481 4.26416 4.19315 5.59583 4.29231 7.19666C5.04315 19.295 14.719 28.9566 26.8032 29.7075C28.404 29.8066 29.7357 28.475 29.7357 26.8741V24.4233C29.7498 22.9925 28.6732 21.7883 27.2423 21.6183Z" fill="#2D69D1"/>
</g>
<defs>
<clipPath id="clip0_0_43">
<rect width="34" height="34" fill="white"/>
</clipPath>
</defs>
</svg>
