<svg width="218" height="42" viewBox="0 0 218 42" fill="none" xmlns="http://www.w3.org/2000/svg">
<g clip-path="url(#clip0_0_162)">
<path d="M36.6047 16.6483C33.8178 13.1028 29.9198 9.66005 24.816 6.55657L24.7977 6.54724C19.6511 3.51535 14.8251 1.73482 10.4723 1.00642C7.74942 0.551952 6.4521 1.08113 5.86297 1.43599C5.27383 1.78774 4.18104 2.69046 3.20118 5.35814C1.63525 9.63515 0.707286 14.8522 0.664551 20.9907V21.0125C0.707286 27.1479 1.6322 32.368 3.20118 36.6451C4.18104 39.3158 5.27383 40.2155 5.86297 40.5672C6.4521 40.919 7.75247 41.4512 10.4723 40.9968C14.8282 40.2684 19.6511 38.4878 24.7977 35.4591L24.816 35.4466C29.9198 32.3431 33.8178 28.9004 36.6047 25.3549C38.3447 23.1417 38.5522 21.7098 38.5522 21C38.5522 20.2903 38.3447 18.8646 36.6078 16.6483" fill="#FF4C00"/>
<path d="M48.446 30.1112L65.1768 13.5572H48.8917V9.34246H71.6481V14.1673L54.9174 30.7213H72.048V34.936H48.446V30.1112ZM72.8447 27.9789C72.8447 22.2918 77.6249 20.7167 81.8557 20.1595L89.722 19.1416C91.6146 18.8895 92.161 18.0241 92.161 16.8568V16.807C92.161 14.5222 90.2196 12.8475 85.9888 12.8475C81.758 12.8475 79.6152 14.4195 79.2153 17.0622H73.9375C74.5358 11.8825 78.968 8.68565 86.1384 8.68565C94.1573 8.68565 97.4418 12.1378 97.4418 17.8249V34.936H92.4143V30.8738C90.2715 34.0209 86.4375 35.5959 82.106 35.5959C76.3795 35.5959 72.8447 32.6512 72.8447 27.9789ZM92.164 23.3595V22.1392C91.3185 22.4941 90.3722 22.6964 89.3252 22.849L83.0523 23.7143C79.8166 24.1719 78.3209 25.389 78.3209 27.624C78.3209 30.0116 80.3142 31.4341 83.5499 31.4341C88.8795 31.4341 92.164 27.7267 92.164 23.3595ZM99.7831 2.8429H105.061V34.9329H99.7831V2.8429ZM106.804 27.9789C106.804 22.2918 111.584 20.7167 115.815 20.1595L123.684 19.1416C125.577 18.8895 126.123 18.0241 126.123 16.8568V16.807C126.123 14.5222 124.182 12.8475 119.948 12.8475C115.714 12.8475 113.574 14.4195 113.177 17.0622H107.9C108.498 11.8825 112.93 8.68565 120.101 8.68565C128.116 8.68565 131.404 12.1378 131.404 17.8249V34.936H126.376V30.8738C124.234 34.0209 120.4 35.5959 116.068 35.5959C110.342 35.5959 106.807 32.6512 106.807 27.9789M126.123 23.3595V22.1392C125.278 22.4941 124.331 22.6964 123.284 22.849L117.011 23.7143C113.776 24.1719 112.28 25.389 112.28 27.624C112.28 30.0116 114.273 31.4341 117.509 31.4341C122.836 31.4341 126.123 27.7267 126.123 23.3595ZM133.742 9.34246H139.023V13.5074C140.913 10.46 144.499 8.68254 148.88 8.68254C155.455 8.68254 159.337 12.5424 159.337 19.6521V34.936H154.06V20.4116C154.06 15.6895 151.621 13.0996 147.137 13.0996C142.308 13.0996 139.023 16.4023 139.023 21.0715V34.936H133.742V9.34246ZM161.08 22.0365C161.08 13.7595 166.706 8.68254 173.428 8.68254C177.46 8.68254 180.949 10.1549 183.037 13.2023V2.8429H188.315V34.9329H183.037V31.0232C180.748 34.1703 177.46 35.5928 173.428 35.5928C166.706 35.5928 161.08 30.4162 161.08 22.0365ZM183.187 22.0863C183.187 16.7541 180.101 13.0467 174.872 13.0467C169.643 13.0467 166.557 16.7043 166.557 22.0334C166.557 27.3625 169.695 31.2256 174.872 31.2256C180.049 31.2256 183.187 27.4155 183.187 22.0832M190.061 22.0863C190.061 14.2171 195.29 8.68254 203.904 8.68254C212.518 8.68254 217.747 14.2171 217.747 22.0863C217.747 29.9555 212.57 35.5959 203.904 35.5959C195.238 35.5959 190.061 29.9586 190.061 22.0863ZM212.268 22.0863C212.268 17.112 209.579 13.0498 203.901 13.0498C198.223 13.0498 195.537 17.112 195.537 22.0863C195.537 27.0606 198.226 31.2287 203.901 31.2287C209.576 31.2287 212.268 27.1166 212.268 22.0863Z" fill="black"/>
</g>
<defs>
<clipPath id="clip0_0_162">
<rect width="217.079" height="40.3421" fill="white" transform="translate(0.664551 0.828918)"/>
</clipPath>
</defs>
</svg>
