<svg width="145" height="44" viewBox="0 0 145 44" fill="none" xmlns="http://www.w3.org/2000/svg">
<path fill-rule="evenodd" clip-rule="evenodd" d="M86.7589 1.76392C86.6762 1.76392 86.6006 1.79508 86.5343 1.85831C86.4681 1.92171 86.4351 1.99414 86.4351 2.07312V9.80662C86.4351 9.88578 86.4681 9.95659 86.5343 10.0198C86.6007 10.0832 86.6762 10.1158 86.7589 10.1158H91.9325C92.0151 10.1158 92.086 10.0883 92.144 10.0328C92.2017 9.9776 92.2303 9.91017 92.2303 9.83104C92.2303 9.75205 92.2017 9.68465 92.144 9.62924C92.086 9.574 92.0151 9.54625 91.9325 9.54625H87.0811V2.07314C87.0811 1.99415 87.0481 1.92169 86.9819 1.85832C86.9156 1.79508 86.8414 1.76392 86.7589 1.76392ZM108.628 1.76392C108.551 1.76392 108.482 1.79633 108.42 1.85993C108.358 1.92367 108.327 1.99531 108.327 2.07475V9.80499C108.327 9.88457 108.358 9.95624 108.42 10.0198C108.482 10.0836 108.551 10.1158 108.628 10.1158H111.854C112.736 10.1158 113.441 9.9078 113.971 9.49415C114.501 9.08067 114.765 8.52778 114.765 7.83582V7.81307C114.765 6.81092 114.155 6.14732 112.933 5.82111C113.853 5.43934 114.313 4.77912 114.313 3.84054V3.81612C114.313 3.29919 114.14 2.86233 113.792 2.50442C113.312 2.01135 112.608 1.76395 111.68 1.76395L108.628 1.76392ZM122.808 1.76392C122.618 1.76392 122.474 1.86119 122.375 2.05685L118.679 9.66829C118.646 9.73104 118.629 9.79448 118.629 9.85707C118.629 9.92756 118.657 9.98849 118.715 10.0393C118.772 10.0902 118.844 10.1158 118.926 10.1158C119.067 10.1158 119.169 10.0417 119.236 9.89288L120.248 7.76584H125.355L126.369 9.87986C126.443 10.0366 126.551 10.1158 126.691 10.1158C126.773 10.1158 126.845 10.0876 126.907 10.0328C126.969 9.9781 126.998 9.91103 126.998 9.83267C126.998 9.7701 126.982 9.70827 126.95 9.64552L123.265 2.05687C123.166 1.8612 123.022 1.76393 122.832 1.76393L122.808 1.76392ZM131.829 1.76392C131.746 1.76392 131.672 1.79508 131.606 1.85831C131.539 1.92171 131.506 1.99414 131.506 2.07312V9.80662C131.506 9.88578 131.539 9.95659 131.606 10.0198C131.672 10.0832 131.746 10.1158 131.829 10.1158H137.004C137.087 10.1158 137.156 10.0883 137.214 10.0328C137.271 9.9776 137.302 9.91017 137.302 9.83104C137.302 9.75205 137.271 9.68465 137.214 9.62924C137.156 9.574 137.086 9.54625 137.004 9.54625H132.151V2.07314C132.151 1.99415 132.118 1.92169 132.052 1.85832C131.985 1.79508 131.911 1.76392 131.829 1.76392ZM78.4461 1.85831C77.2063 1.85831 76.1905 2.29536 75.3995 3.17001C74.6084 4.04481 74.2131 5.08058 74.2131 6.27675V6.30116C74.2131 7.54615 74.6027 8.59012 75.3816 9.43231C76.1604 10.2745 77.2061 10.6952 78.5193 10.6952C79.6694 10.6952 80.7173 10.329 81.6635 9.59668C81.8103 9.47462 81.8832 9.35257 81.8832 9.23051V6.43624C81.8832 6.34678 81.8507 6.27105 81.7855 6.21002C81.7202 6.14903 81.6456 6.11889 81.5642 6.11889H78.6039C78.5223 6.11889 78.4542 6.14664 78.3972 6.20351C78.3401 6.26051 78.311 6.33056 78.311 6.41182C78.311 6.49323 78.3401 6.56165 78.3972 6.61851C78.4542 6.6755 78.5223 6.70475 78.6039 6.70475H81.2713V9.15728C80.9366 9.44219 80.5277 9.67561 80.0426 9.8587C79.5572 10.0418 79.0575 10.1337 78.5437 10.1337C77.4182 10.1337 76.5239 9.77326 75.8633 9.05312C75.2027 8.33299 74.8739 7.40787 74.8739 6.27675V6.25233C74.8739 5.20263 75.2075 4.30442 75.8764 3.5557C76.545 2.80712 77.3891 2.43277 78.4086 2.43277C79.3791 2.43277 80.2361 2.72087 80.9783 3.29856C81.0435 3.35555 81.1083 3.38482 81.1736 3.38482C81.2551 3.38482 81.328 3.35307 81.3933 3.29205C81.4585 3.23106 81.491 3.15708 81.491 3.06747C81.491 2.96179 81.4504 2.87554 81.3689 2.81034C80.5288 2.17564 79.5551 1.85831 78.4461 1.85831ZM99.6204 1.85831C98.425 1.85831 97.4445 2.2945 96.6813 3.16512C95.9178 4.03591 95.5372 5.07255 95.5372 6.27675V6.30116C95.5372 7.50551 95.9141 8.53895 96.6699 9.40139C97.4255 10.264 98.4009 10.6952 99.596 10.6952C100.791 10.6952 101.772 10.2608 102.535 9.39C103.298 8.51937 103.679 7.48111 103.679 6.27675V6.25233C103.679 5.04814 103.302 4.01469 102.547 3.15209C101.791 2.28966 100.815 1.85831 99.6204 1.85831ZM108.931 2.33677H111.668C112.31 2.33677 112.81 2.47506 113.165 2.75339C113.521 3.03186 113.698 3.40709 113.698 3.8763V3.89905C113.698 4.44 113.507 4.86136 113.125 5.16355C112.742 5.4659 112.236 5.6176 111.61 5.6176H108.931V2.33677ZM99.596 2.43278C100.583 2.43278 101.407 2.80713 102.066 3.5557C102.726 4.30443 103.054 5.21083 103.054 6.27675V6.30116C103.054 7.36724 102.729 8.27044 102.078 9.01081C101.426 9.75135 100.607 10.1223 99.6204 10.1223C98.6332 10.1223 97.8093 9.74815 97.15 8.99942C96.4907 8.25085 96.1621 7.34282 96.1621 6.27675V6.25233C96.1621 5.18641 96.4869 4.28321 97.1386 3.54267C97.79 2.8023 98.6091 2.43278 99.596 2.43278ZM122.808 2.4572L125.083 7.21414H120.521L122.808 2.4572ZM108.931 6.1905H111.68C112.476 6.1905 113.086 6.33137 113.512 6.61362C113.937 6.89603 114.15 7.2961 114.15 7.81303V7.83578C114.15 8.36072 113.946 8.77789 113.536 9.084C113.126 9.39028 112.572 9.54293 111.877 9.54293H108.931V6.1905Z" fill="black"/>
<path fill-rule="evenodd" clip-rule="evenodd" d="M78.4657 33.2415C77.2169 33.2415 76.1948 33.6551 75.3981 34.4815C74.6011 35.3084 74.2019 36.2871 74.2019 37.4174V37.4402C74.2019 38.6167 74.5939 39.6029 75.3785 40.3988C76.163 41.1947 77.2179 41.5933 78.5406 41.5933C79.6991 41.5933 80.7545 41.2473 81.7076 40.555C81.8554 40.4397 81.9289 40.3238 81.9289 40.2084V37.5671C81.9289 37.4826 81.8953 37.4116 81.8296 37.3539C81.7638 37.2962 81.6903 37.2677 81.6083 37.2677H78.6269C78.5446 37.2677 78.4743 37.2955 78.4169 37.3491C78.3594 37.4031 78.3307 37.4675 78.3307 37.5443C78.3307 37.6214 78.3593 37.6877 78.4169 37.7413C78.4743 37.7953 78.5447 37.821 78.6269 37.821H81.3121V40.1401C80.975 40.4093 80.5623 40.6293 80.0736 40.8024C79.5848 40.9755 79.0826 41.0628 78.565 41.0628C77.4313 41.0628 76.5306 40.7232 75.8651 40.0424C75.1997 39.362 74.8675 38.4864 74.8675 37.4174V37.3947C74.8675 36.4027 75.2044 35.5537 75.8781 34.8461C76.5517 34.1387 77.4013 33.7834 78.4283 33.7834C79.4059 33.7834 80.2699 34.0579 81.0175 34.6036C81.0832 34.6577 81.1486 34.6834 81.2145 34.6834C81.2965 34.6834 81.37 34.655 81.4358 34.5971C81.5014 34.5395 81.5351 34.4686 81.5351 34.3839C81.5351 34.2841 81.4934 34.2032 81.4114 34.1415C80.5652 33.5416 79.5829 33.2415 78.4657 33.2415ZM86.7428 33.2415C86.6643 33.2415 86.5926 33.2741 86.5296 33.3375C86.4666 33.4007 86.4352 33.4717 86.4352 33.5507V41.2842C86.4352 41.3633 86.4666 41.4358 86.5296 41.499C86.5926 41.5622 86.6643 41.5934 86.7428 41.5934C86.8213 41.5934 86.8912 41.5622 86.9544 41.499C87.0172 41.4357 87.0488 41.3633 87.0488 41.2842V38.1058H89.7486L92.2842 41.4274C92.3627 41.5382 92.4537 41.5934 92.5559 41.5934C92.6425 41.5934 92.7174 41.5622 92.7805 41.499C92.8434 41.4357 92.8749 41.3599 92.8749 41.2728C92.8749 41.2095 92.8433 41.1387 92.7805 41.0596L90.4338 37.9984C91.1648 37.8957 91.7494 37.6434 92.1898 37.24C92.63 36.8367 92.8505 36.2979 92.8505 35.6256V35.6029C92.8505 34.994 92.6423 34.4793 92.2256 34.0601C91.6831 33.5144 90.9095 33.2415 89.9032 33.2415L86.7428 33.2415ZM101.578 33.2415C100.35 33.2415 99.344 33.6539 98.5595 34.4767C97.7746 35.2996 97.3812 36.2796 97.3812 37.4174V37.4402C97.3812 38.5783 97.7696 39.5563 98.5465 40.3711C99.3232 41.1863 100.327 41.5933 101.556 41.5933C102.784 41.5933 103.79 41.1827 104.574 40.3598C105.359 39.537 105.751 38.5555 105.751 37.4174V37.3946C105.751 36.2566 105.363 35.2805 104.586 34.4653C103.809 33.6504 102.807 33.2415 101.578 33.2415ZM110.58 33.2415C110.489 33.2415 110.413 33.2736 110.352 33.3358C110.29 33.3983 110.259 33.468 110.259 33.5458V38.0651C110.259 39.1864 110.584 40.0556 111.234 40.6706C111.884 41.2858 112.739 41.5934 113.8 41.5934C114.878 41.5934 115.738 41.2796 116.38 40.6527C117.021 40.026 117.342 39.1398 117.342 37.9952V33.5458C117.342 33.468 117.31 33.3982 117.249 33.3358C117.187 33.2736 117.111 33.2415 117.021 33.2415C116.93 33.2415 116.855 33.2736 116.793 33.3358C116.731 33.3983 116.7 33.468 116.7 33.5458V38.0651C116.7 39.0307 116.445 39.7701 115.935 40.28C115.425 40.7901 114.721 41.0449 113.825 41.0449C112.912 41.0449 112.196 40.7777 111.678 40.2442C111.16 39.711 110.9 38.9658 110.9 38.0082V33.5458C110.9 33.468 110.869 33.3982 110.807 33.3358C110.746 33.2736 110.67 33.2415 110.58 33.2415ZM122.173 33.2415C122.09 33.2415 122.016 33.2741 121.949 33.3375C121.882 33.4007 121.848 33.4717 121.848 33.5507V41.2858C121.848 41.3648 121.882 41.4358 121.949 41.499C122.016 41.5622 122.09 41.5934 122.173 41.5934C122.257 41.5934 122.332 41.5622 122.4 41.499C122.466 41.4357 122.5 41.3648 122.5 41.2858V38.4492H124.867C125.835 38.4492 126.649 38.2186 127.305 37.7559C127.96 37.2933 128.288 36.643 128.288 35.8046V35.7802C128.288 34.9895 127.988 34.3692 127.391 33.9185C126.794 33.4678 126.008 33.2415 125.031 33.2415H122.173ZM101.556 33.7834C102.57 33.7834 103.415 34.1387 104.093 34.8461C104.77 35.5538 105.11 36.4101 105.11 37.4174V37.4402C105.11 38.4476 104.775 39.302 104.106 40.0017C103.436 40.7016 102.593 41.0514 101.578 41.0514C100.564 41.0514 99.7173 40.6979 99.0396 39.9903C98.3619 39.2829 98.0241 38.4249 98.0241 37.4174V37.3946C98.0241 36.3873 98.3583 35.5331 99.0282 34.8331C99.6978 34.1334 100.541 33.7834 101.556 33.7834ZM87.0488 33.811H89.8674C90.6144 33.811 91.1954 33.9736 91.612 34.2977C92.0288 34.622 92.237 35.0642 92.237 35.6256V35.65C92.237 36.2354 92.013 36.6983 91.5648 37.0382C91.1169 37.3783 90.539 37.5476 89.8316 37.5476H87.0488V33.811ZM122.5 33.811H124.981C125.791 33.811 126.435 33.9855 126.916 34.3334C127.396 34.6815 127.635 35.1754 127.635 35.816V35.8404C127.635 36.4573 127.386 36.9514 126.885 37.323C126.384 37.695 125.724 37.8796 124.906 37.8796H122.5V33.811Z" fill="black"/>
<path fill-rule="evenodd" clip-rule="evenodd" d="M75.123 17.8249C74.8679 17.8249 74.6498 17.9127 74.4704 18.0902C74.2912 18.2676 74.2019 18.4823 74.2019 18.7346V25.2638C74.2019 25.5163 74.2912 25.7325 74.4704 25.9099C74.6498 26.0873 74.8679 26.1752 75.123 26.1752C75.3778 26.1752 75.5948 26.0873 75.774 25.9099C75.9532 25.7325 76.0425 25.5163 76.0425 25.2638V22.8992H79.2681C79.4988 22.8992 79.6955 22.8184 79.8588 22.6567C80.022 22.4951 80.1029 22.2996 80.1029 22.0708C80.1029 21.8422 80.0219 21.6467 79.8588 21.485C79.6955 21.3234 79.4988 21.2425 79.2681 21.2425H76.0425V19.48H79.8051C80.0358 19.48 80.2326 19.3992 80.3959 19.2375C80.559 19.0759 80.6416 18.8804 80.6416 18.6516C80.6416 18.423 80.559 18.2291 80.3959 18.0674C80.2326 17.9058 80.0358 17.8249 79.8051 17.8249H75.123ZM87.3596 17.8249C86.8523 17.8249 86.4899 18.0609 86.2725 18.5344L83.3252 24.953C83.2527 25.1084 83.2162 25.2362 83.2162 25.3371C83.2162 25.57 83.2984 25.768 83.4635 25.9311C83.6285 26.0941 83.8323 26.1752 84.0738 26.1752C84.4764 26.1752 84.7624 25.9897 84.9315 25.617L85.5239 24.2776H89.2441L89.8105 25.5584C89.9955 25.97 90.2949 26.1752 90.7056 26.1752C90.9551 26.1752 91.1647 26.0916 91.3337 25.9246C91.5028 25.7577 91.586 25.555 91.586 25.3143C91.586 25.2134 91.5543 25.0928 91.49 24.953L88.5427 18.5344C88.3253 18.0609 87.9678 17.8249 87.4686 17.8249H87.3596ZM97.9492 17.8249C97.1046 17.8249 96.4145 18.0488 95.8791 18.497C95.3433 18.9456 95.0752 19.5363 95.0752 20.2709V20.2953C95.0752 20.6897 95.1362 21.0234 95.2575 21.2978C95.3787 21.5724 95.5701 21.8022 95.8319 21.9878C96.0938 22.1734 96.3693 22.3233 96.6587 22.4354C96.9479 22.5475 97.3271 22.6611 97.7962 22.7771C98.4607 22.9473 98.9036 23.1046 99.1226 23.2474C99.3414 23.3908 99.4497 23.5769 99.4497 23.8089V23.8317C99.4497 24.0714 99.3451 24.2595 99.134 24.3947C98.9227 24.5301 98.6338 24.5982 98.2666 24.5982C97.5394 24.5982 96.8396 24.3546 96.1672 23.8675C96.0107 23.7593 95.8373 23.7047 95.6497 23.7047C95.4152 23.7047 95.2167 23.784 95.0524 23.9423C94.8883 24.1009 94.8067 24.2962 94.8067 24.5282C94.8067 24.8221 94.9198 25.0459 95.1468 25.2003C96.0614 25.8499 97.0893 26.1751 98.2308 26.1751C99.1377 26.1751 99.8668 25.9526 100.418 25.5079C100.969 25.0633 101.245 24.4479 101.245 23.6592V23.6347C101.245 22.962 101.034 22.4466 100.612 22.0871C100.189 21.7275 99.5324 21.4321 98.6409 21.2001C97.9137 21.0145 97.4369 20.855 97.2104 20.7233C96.9834 20.5919 96.8702 20.3955 96.8702 20.1325V20.1098C96.8702 19.901 96.9613 19.7305 97.1453 19.5988C97.3288 19.4674 97.5903 19.4019 97.9264 19.4019C98.4502 19.4019 99.0244 19.5837 99.6499 19.947C99.7983 20.0324 99.9507 20.074 100.107 20.074C100.342 20.074 100.54 19.9949 100.704 19.8364C100.869 19.678 100.952 19.4825 100.952 19.2505C100.952 18.9335 100.819 18.6973 100.553 18.5426C99.7866 18.0632 98.9185 17.8249 97.9492 17.8249ZM106.674 17.8249C106.418 17.8249 106.201 17.9126 106.021 18.0885C105.842 18.2645 105.751 18.4763 105.751 18.7265V25.272C105.751 25.5223 105.842 25.7356 106.021 25.9115C106.201 26.0875 106.418 26.1752 106.674 26.1752C106.929 26.1752 107.145 26.0875 107.325 25.9115C107.504 25.7356 107.595 25.5223 107.595 25.272V22.8097H110.991V25.272C110.991 25.5223 111.082 25.7356 111.261 25.9115C111.441 26.0875 111.657 26.1752 111.912 26.1752C112.167 26.1752 112.386 26.0875 112.565 25.9115C112.745 25.7356 112.834 25.5223 112.834 25.272V18.7265C112.834 18.4763 112.745 18.2645 112.565 18.0885C112.386 17.9126 112.167 17.8249 111.912 17.8249C111.657 17.8249 111.441 17.9126 111.261 18.0885C111.082 18.2645 110.991 18.4763 110.991 18.7265V21.1432H107.595V18.7265C107.595 18.4763 107.504 18.2645 107.325 18.0885C107.145 17.9126 106.929 17.8249 106.674 17.8249ZM118.307 17.8249C118.039 17.8249 117.811 17.9126 117.623 18.0885C117.435 18.2645 117.342 18.4763 117.342 18.7265V25.272C117.342 25.5223 117.435 25.7356 117.623 25.9115C117.811 26.0875 118.039 26.1752 118.307 26.1752C118.574 26.1752 118.802 26.0875 118.99 25.9115C119.178 25.7356 119.273 25.5223 119.273 25.272V18.7265C119.273 18.4763 119.178 18.2645 118.99 18.0885C118.802 17.9126 118.574 17.8249 118.307 17.8249ZM127.656 17.8249C126.364 17.8249 125.287 18.2293 124.427 19.0406C123.567 19.852 123.137 20.8381 123.137 21.9992V22.0236C123.137 23.1849 123.562 24.1658 124.414 24.9693C125.266 25.7729 126.339 26.1752 127.632 26.1752C128.924 26.1752 130 25.7693 130.861 24.9579C131.721 24.1466 132.151 23.1605 132.151 21.9992V21.9765C132.151 20.8154 131.724 19.8329 130.872 19.0292C130.02 18.2257 128.948 17.8249 127.656 17.8249ZM142.796 17.8249C142.531 17.8249 142.307 17.9101 142.126 18.082C141.943 18.2541 141.852 18.4649 141.852 18.7151V22.9496L138.163 18.375C137.873 18.0231 137.541 17.8477 137.168 17.8477H136.97C136.705 17.8477 136.479 17.9354 136.293 18.1113C136.107 18.2873 136.013 18.5007 136.013 18.7509V25.2834C136.013 25.5337 136.104 25.7461 136.286 25.918C136.468 26.0901 136.692 26.1752 136.957 26.1752C137.222 26.1752 137.447 26.0901 137.629 25.918C137.811 25.7461 137.902 25.5337 137.902 25.2834V20.8861L141.727 25.6235C142.017 25.9754 142.348 26.1524 142.721 26.1524H142.783C143.048 26.1524 143.273 26.0647 143.46 25.8887C143.646 25.7128 143.74 25.4995 143.74 25.2492V18.7151C143.74 18.4649 143.648 18.2541 143.466 18.082C143.284 17.9101 143.061 17.8249 142.796 17.8249ZM127.632 19.4621C128.375 19.4621 128.988 19.7089 129.472 20.2009C129.957 20.6931 130.2 21.2918 130.2 21.9992V22.0236C130.2 22.7312 129.962 23.3261 129.485 23.8105C129.009 24.295 128.399 24.538 127.656 24.538C126.913 24.538 126.299 24.2914 125.814 23.7991C125.329 23.3071 125.086 22.7068 125.086 21.9992V21.9765C125.086 21.269 125.324 20.674 125.801 20.1896C126.277 19.7051 126.889 19.4621 127.632 19.4621ZM87.384 20.0024L88.5557 22.6925H86.2123L87.384 20.0024Z" fill="black"/>
<path fill-rule="evenodd" clip-rule="evenodd" d="M11.4256 2.40674C10.2974 2.40674 9.17899 2.60869 8.06825 3.01214C6.95844 3.41606 5.94807 4.00118 5.03799 4.77138C4.1645 5.57829 3.4535 6.58787 2.9077 7.79838C2.36175 9.00873 2.08911 10.4029 2.08911 11.9792V13.9598H7.65814V11.9792C7.65814 10.623 8.03212 9.62208 8.7778 8.97988C9.52427 8.33847 10.4067 8.01808 11.4256 8.01808C12.4448 8.01808 13.3277 8.33847 14.0734 8.97988C14.8197 9.62208 15.1915 10.623 15.1915 11.9792V32.6637C15.1915 34.0211 14.8197 35.0205 14.0734 35.6614C13.3277 36.3036 12.4448 36.6249 11.4256 36.6249C10.4067 36.6249 9.52427 36.3036 8.7778 35.6614C8.03212 35.0205 7.65814 34.0211 7.65814 32.6637V25.2915H12.0798V20.3409H2.08911V32.6637C2.08911 34.3141 2.36175 35.7264 2.9077 36.8999C3.4535 38.074 4.1645 39.0444 5.03799 39.8146C5.94807 40.6215 6.95844 41.2278 8.06825 41.6308C9.17899 42.0341 10.2974 42.2362 11.4256 42.2362C12.5539 42.2362 13.6732 42.0341 14.783 41.6308C15.8937 41.2278 16.8846 40.6215 17.7579 39.8146C18.6684 39.0444 19.3961 38.074 19.9419 36.8999C20.4879 35.7264 20.7605 34.3141 20.7605 32.6637V11.9792C20.7605 10.4029 20.4879 9.00873 19.9419 7.79838C19.3961 6.58787 18.6684 5.57829 17.7579 4.77138C16.8846 4.00118 15.8937 3.41606 14.783 3.01214C13.6732 2.60869 12.5539 2.40674 11.4256 2.40674ZM25.9129 2.40674V41.5934H31.5291V24.8619H41.2204V19.5776H31.5291V7.68935H42.6525V2.40674H25.9129ZM55.2081 2.40674C54.0797 2.40674 52.9604 2.60884 51.8507 3.01214C50.7398 3.41622 49.7493 4.00118 48.8758 4.77138C47.9654 5.57829 47.2377 6.58771 46.6918 7.79838C46.1458 9.00858 45.8716 10.4029 45.8716 11.9792V32.6637C45.8716 34.3141 46.1458 35.7264 46.6918 36.8999C47.2377 38.0739 47.9654 39.0443 48.8758 39.8146C49.7493 40.6215 50.7398 41.228 51.8507 41.6308C52.9604 42.0341 54.0797 42.2362 55.2081 42.2362C56.3363 42.2362 57.4546 42.0341 58.5654 41.6308C59.6753 41.228 60.6858 40.6215 61.5957 39.8146C62.4692 39.0443 63.1783 38.0739 63.7244 36.8999C64.2703 35.7264 64.5446 34.3141 64.5446 32.6637V20.3409H54.5522V25.2915H58.9755V32.6637C58.9755 34.0211 58.6016 35.0203 57.8559 35.6614C57.1096 36.3035 56.227 36.6249 55.2081 36.6249C54.1889 36.6249 53.306 36.3035 52.5603 35.6614C51.8138 35.0203 51.4406 34.0211 51.4406 32.6637V11.9792C51.4406 10.6228 51.8138 9.62208 52.5603 8.97988C53.306 8.33847 54.1889 8.01808 55.2081 8.01808C56.227 8.01808 57.1096 8.33847 57.8559 8.97988C58.6016 9.62208 58.9755 10.6228 58.9755 11.9792V13.9598H64.5446V11.9792C64.5446 10.4029 64.2703 9.00858 63.7244 7.79838C63.1783 6.58771 62.4692 5.57829 61.5957 4.77138C60.6858 4.00118 59.6753 3.41622 58.5654 3.01214C57.4546 2.60884 56.3363 2.40674 55.2081 2.40674Z" fill="black"/>
</svg>
