<svg width="231" height="38" viewBox="0 0 231 38" fill="none" xmlns="http://www.w3.org/2000/svg">
<g clip-path="url(#clip0_0_165)">
<path d="M140.168 0.750061C148.161 0.750061 154.623 7.08937 154.623 15.3156V34.5057H144.761V15.1435C144.761 12.7434 142.891 10.6877 140.339 10.6877C137.786 10.6877 135.917 12.5713 135.917 15.1435V34.3336H126.055V15.1435C125.713 7.08937 132.175 0.750061 140.168 0.750061Z" fill="black"/>
<path d="M159.045 0.750019C167.037 0.750019 173.499 7.26149 173.499 15.3156V34.5057H163.637V15.1434C163.637 12.7434 161.597 10.6877 159.216 10.6877H158.535C157.685 7.26149 155.986 4.17622 153.604 1.77619C155.306 1.09095 157.175 0.746643 159.045 0.746643V0.750019Z" fill="black"/>
<path d="M192.372 3.49091H182.51V34.5056H192.372V3.49091Z" fill="black"/>
<path d="M213.801 26.7958V37.2499C206.83 36.2204 201.386 30.2254 201.386 22.8565V3.49091H211.248V22.8532C211.419 24.5679 212.437 25.9384 213.797 26.7958H213.801Z" fill="black"/>
<path d="M217.711 37.0778V26.7958C219.242 26.1106 220.093 24.5679 220.093 22.8532V3.49091H230.126V22.8532C230.126 30.0499 224.853 36.2204 217.711 37.0744V37.0778Z" fill="black"/>
<path d="M15.0137 0.749939C23.0065 0.749939 29.2975 7.08925 29.2975 15.3155V34.5056H19.2647V15.1434C19.2647 12.7433 17.2246 10.6876 14.8429 10.6876C12.4611 10.8598 10.5919 12.7433 10.5919 15.1434V34.3334H0.559082V15.1434C0.559082 7.08925 7.02096 0.749939 15.0137 0.749939Z" fill="black"/>
<path d="M33.8904 0.750019C41.8831 0.750019 48.345 7.26149 48.345 15.3156V34.5057H38.3122V15.1434C38.3122 12.7434 36.2721 10.6877 33.8904 10.6877H33.3812C32.5303 7.26149 30.8319 4.17622 28.4502 1.77619C30.1519 1.09095 32.0211 0.746643 33.8904 0.746643V0.750019Z" fill="black"/>
<path d="M67.0475 3.49091H57.1855V34.5056H67.0475V3.49091Z" fill="black"/>
<path d="M88.6441 26.7958V37.2499C81.673 36.2204 76.2295 30.2254 76.2295 22.8565V3.49091H86.0915V22.8532C86.0915 24.5679 87.1132 25.9384 88.6407 26.7958H88.6441Z" fill="black"/>
<path d="M92.5566 37.0778V26.7958C93.9167 26.1106 94.9384 24.5679 94.9384 22.8532V3.49091H104.8V22.8532C104.8 30.0499 99.5277 36.2204 92.5566 37.0744V37.0778Z" fill="black"/>
</g>
<defs>
<clipPath id="clip0_0_165">
<rect width="229.566" height="36.5" fill="white" transform="translate(0.559082 0.75)"/>
</clipPath>
</defs>
</svg>
