<svg width="145" height="36" viewBox="0 0 145 36" fill="none" xmlns="http://www.w3.org/2000/svg">
<g clip-path="url(#clip0_0_149)">
<rect width="144.079" height="35.0668" transform="translate(0.769775 0.466553)" fill="white"/>
<path d="M71.7059 0.695801C72.1968 0.700223 72.1968 0.700223 72.6975 0.704734C73.0254 0.707027 73.3533 0.70932 73.6911 0.711682C73.945 0.714631 74.1989 0.717579 74.4604 0.720616C74.8382 1.78551 75.1031 2.82353 75.3062 3.93455C75.3365 4.09846 75.3668 4.26236 75.398 4.43123C75.4948 4.95639 75.5901 5.4818 75.6853 6.00724C75.7447 6.3304 75.8042 6.65356 75.8654 6.98651C76.0865 8.19047 76.3056 9.39478 76.525 10.599C77.0177 13.2929 77.5103 15.9868 78.0179 18.7622C78.1018 12.8085 78.1856 6.85477 78.272 0.720616C79.3621 0.720616 80.4523 0.720616 81.5754 0.720616C81.5754 12.0411 81.5754 23.3616 81.5754 35.0251C80.5692 35.0251 79.5629 35.0251 78.5261 35.0251C78.4279 34.5954 78.3296 34.1656 78.2284 33.7228C78.0948 33.1405 77.9611 32.5581 77.8273 31.9758C77.7222 31.5181 77.7222 31.5181 77.6149 31.051C77.2585 29.5066 76.8924 27.967 76.4933 26.4331C75.7287 23.3032 75.1132 20.1386 74.4604 16.9835C74.3766 22.9372 74.2927 28.891 74.2063 35.0251C73.0323 35.0251 71.8584 35.0251 70.6488 35.0251C70.6429 30.5899 70.6384 26.1547 70.6356 21.7194C70.6343 19.6602 70.6325 17.601 70.6296 15.5418C70.6271 13.7476 70.6255 11.9535 70.6249 10.1593C70.6246 9.20873 70.6238 8.25816 70.6219 7.30759C70.6199 6.24815 70.6198 5.18873 70.62 4.12929C70.619 3.81181 70.6181 3.49433 70.6172 3.16722C70.6175 2.88037 70.6179 2.59351 70.6182 2.29797C70.618 2.0471 70.6178 1.79624 70.6175 1.53777C70.6672 0.642791 70.7867 0.724207 71.7059 0.695801Z" fill="black"/>
<path d="M120.962 0.720642C122.22 0.720642 123.478 0.720642 124.774 0.720642C124.887 1.32565 125.001 1.93065 125.118 2.55399C125.956 7.0068 126.803 11.4568 127.706 15.8971C127.83 16.5131 127.954 17.1295 128.077 17.7458C128.161 12.1275 128.245 6.50921 128.331 0.720642C129.421 0.720642 130.511 0.720642 131.634 0.720642C131.634 12.0411 131.634 23.3616 131.634 35.0252C130.712 35.0252 129.79 35.0252 128.839 35.0252C128.198 33.2218 127.753 31.4175 127.353 29.547C127.288 29.246 127.223 28.9451 127.155 28.635C126.948 27.6789 126.742 26.7225 126.536 25.7661C126.397 25.1247 126.258 24.4833 126.119 23.8419C125.863 22.6606 125.607 21.4792 125.353 20.2974C125.302 20.0617 125.252 19.8259 125.199 19.583C124.965 18.464 124.744 17.3423 124.519 16.2212C124.436 22.4265 124.352 28.6318 124.265 35.0252C123.175 35.0252 122.085 35.0252 120.962 35.0252C120.962 23.7047 120.962 12.3842 120.962 0.720642Z" fill="black"/>
<path d="M84.625 0.720642C91.2318 0.720642 91.2318 0.720642 93.2647 1.48296C95.5306 3.79716 95.0893 7.15214 95.0911 10.202C95.0942 10.4885 95.0973 10.7749 95.1005 11.0701C95.1047 13.4532 94.9125 14.9515 93.2647 16.7294C93.5162 16.8133 93.7678 16.8971 94.027 16.9835C95.0896 18.4548 95.0818 19.902 95.0772 21.6627C95.0774 21.8686 95.0776 22.0745 95.0779 22.2866C95.0781 22.7219 95.0776 23.1572 95.0765 23.5924C95.0752 24.2498 95.0765 24.9072 95.0781 25.5646C95.0814 32.4403 95.0814 32.4403 93.6647 33.8648C90.9919 36.206 88.8438 35.0252 84.625 35.0252C84.625 23.7047 84.625 12.3842 84.625 0.720642ZM88.4366 4.78636C88.4366 8.05673 88.4366 11.3271 88.4366 14.6966C90.2611 14.8481 90.2611 14.8481 90.9777 14.4424C91.208 13.4351 91.2644 12.4634 91.2655 11.4329C91.2659 11.158 91.2662 10.8832 91.2665 10.6001C91.2656 10.3167 91.2646 10.0334 91.2636 9.74146C91.2645 9.45812 91.2655 9.17478 91.2665 8.88285C91.2662 8.60803 91.2659 8.33321 91.2655 8.05005C91.2653 7.8016 91.265 7.55315 91.2647 7.29716C91.2298 6.52155 91.1508 5.7977 90.9777 5.04047C90.2611 4.63484 90.2611 4.63484 88.4366 4.78636ZM88.4366 18.2541C88.4366 22.5307 88.4366 26.8073 88.4366 31.2135C90.2804 31.3927 90.2804 31.3927 90.9713 30.9009C91.2923 30.3467 91.3299 29.9944 91.3345 29.3544C91.3377 29.1339 91.3409 28.9134 91.3442 28.6862C91.3435 28.4488 91.3427 28.2114 91.342 27.9667C91.344 27.5997 91.344 27.5997 91.346 27.2253C91.3476 26.7077 91.3473 26.1902 91.3451 25.6726C91.343 24.8806 91.3503 24.089 91.3584 23.297C91.3588 22.7942 91.3586 22.2915 91.3579 21.7887C91.3607 21.5518 91.3636 21.3149 91.3665 21.0708C91.3559 20.0853 91.3456 19.4576 90.8269 18.6049C90.0757 18.1065 90.0757 18.1065 88.4366 18.2541Z" fill="black"/>
<path d="M37.3613 0.720642C38.6192 0.720642 39.877 0.720642 41.1729 0.720642C41.1729 5.41655 41.1729 10.1125 41.1729 14.9507C42.0115 14.9507 42.85 14.9507 43.714 14.9507C43.714 10.2548 43.714 5.55885 43.714 0.720642C44.9718 0.720642 46.2297 0.720642 47.5256 0.720642C47.5256 12.0411 47.5256 23.3616 47.5256 35.0252C46.3516 35.0252 45.1777 35.0252 43.9681 35.0252C43.9681 29.7423 43.9681 24.4594 43.9681 19.0164C43.0457 19.0164 42.1233 19.0164 41.1729 19.0164C41.1729 24.2993 41.1729 29.5822 41.1729 35.0252C39.9151 35.0252 38.6573 35.0252 37.3613 35.0252C37.3613 23.7047 37.3613 12.3842 37.3613 0.720642Z" fill="black"/>
<path d="M65.1697 0.704809C66.5586 1.82269 67.3921 3.33447 67.8537 5.04052C67.927 5.87168 67.9258 6.69928 67.9235 7.53326C67.9248 7.78014 67.9261 8.02701 67.9274 8.28136C67.9309 9.09532 67.9307 9.90923 67.9301 10.7232C67.9311 11.2909 67.9322 11.8587 67.9334 12.4265C67.9353 13.616 67.9352 14.8056 67.9339 15.9951C67.9324 17.516 67.9367 19.0368 67.9426 20.5577C67.9464 21.7303 67.9466 22.9029 67.9458 24.0755C67.9459 24.6361 67.9473 25.1966 67.9498 25.7571C67.953 26.5428 67.9512 27.3283 67.9483 28.114C67.9512 28.458 67.9512 28.458 67.9542 28.809C67.9356 31.0699 67.4397 32.8981 65.8208 34.517C64.7045 35.4419 63.4215 35.5679 62.0092 35.5334C60.5829 35.2561 59.6193 34.6423 58.7058 33.5005C57.6937 31.9475 57.5425 30.598 57.5579 28.7733C57.5561 28.511 57.5543 28.2488 57.5525 27.9786C57.548 27.1167 57.551 26.2549 57.5544 25.3929C57.5537 24.7911 57.5527 24.1893 57.5515 23.5875C57.55 22.3281 57.5521 21.0688 57.5569 19.8094C57.5627 18.1979 57.5593 16.5865 57.5533 14.975C57.5496 13.7329 57.5507 12.4908 57.5534 11.2486C57.5541 10.6545 57.5532 10.0605 57.5509 9.46638C57.5483 8.63503 57.5522 7.80396 57.5579 6.97263C57.5558 6.72889 57.5538 6.48515 57.5516 6.23402C57.574 4.44699 57.9651 3.06891 59.1763 1.72223C59.325 1.6066 59.4737 1.49097 59.627 1.37184C59.777 1.25163 59.927 1.13141 60.0816 1.00755C61.4703 0.0190234 63.5966 0.275797 65.1697 0.704809ZM61.501 5.04052C61.4234 5.51805 61.4234 5.51805 61.4348 6.07084C61.433 6.28638 61.4312 6.50193 61.4293 6.72401C61.4299 6.96097 61.4306 7.19793 61.4312 7.44207C61.4299 7.69124 61.4286 7.94041 61.4273 8.19714C61.4237 9.02395 61.424 9.85071 61.4246 10.6775C61.4236 11.2504 61.4225 11.8233 61.4213 12.3961C61.4194 13.5981 61.4195 14.8002 61.4208 16.0022C61.4223 17.5449 61.418 19.0875 61.4121 20.6302C61.4083 21.8137 61.4081 22.9971 61.4089 24.1806C61.4088 24.7495 61.4074 25.3184 61.4049 25.8873C61.4017 26.6819 61.4034 27.4763 61.4064 28.2709C61.4045 28.5074 61.4025 28.7438 61.4005 28.9874C61.4023 29.2037 61.4041 29.42 61.4059 29.6428C61.4059 29.8307 61.4058 30.0186 61.4058 30.2122C61.5288 30.8493 61.7503 31.0807 62.2633 31.4677C62.9237 31.4881 62.9237 31.4881 63.5339 31.2136C63.9734 30.516 64.1059 29.9748 64.1083 29.1574C64.1101 28.9526 64.1119 28.7477 64.1138 28.5367C64.1132 28.3143 64.1125 28.0918 64.1119 27.8626C64.1132 27.6266 64.1145 27.3905 64.1158 27.1473C64.1193 26.367 64.1191 25.5867 64.1185 24.8063C64.1195 24.2639 64.1206 23.7214 64.1218 23.179C64.1237 22.042 64.1236 20.9049 64.1223 19.7679C64.1208 18.3107 64.1251 16.8536 64.131 15.3964C64.1348 14.2761 64.135 13.1559 64.1342 12.0356C64.1343 11.4984 64.1357 10.9611 64.1382 10.4238C64.1413 9.67259 64.1396 8.92151 64.1367 8.17027C64.1386 7.94833 64.1406 7.72639 64.1426 7.49772C64.1323 6.31213 64.0777 5.48042 63.2798 4.5323C62.3939 4.38106 62.1455 4.39603 61.501 5.04052Z" fill="black"/>
<path d="M111.56 0.720642C112.902 0.720642 114.244 0.720642 115.626 0.720642C116.347 6.87558 116.935 13.0438 117.532 19.2117C117.679 20.7306 117.827 22.2493 117.975 23.7681C118.09 24.9456 118.204 26.1232 118.318 27.3008C118.373 27.8615 118.427 28.4222 118.482 28.9828C118.558 29.7607 118.633 30.5387 118.708 31.3166C118.731 31.546 118.754 31.7754 118.777 32.0118C118.797 32.2238 118.817 32.4359 118.838 32.6544C118.856 32.8373 118.874 33.0202 118.892 33.2087C118.934 33.8129 118.93 34.4195 118.93 35.0252C117.588 35.0252 116.246 35.0252 114.864 35.0252C114.738 31.8806 114.738 31.8806 114.61 28.6725C113.771 28.6725 112.933 28.6725 112.069 28.6725C111.901 30.7689 111.733 32.8652 111.56 35.0252C110.386 35.0252 109.212 35.0252 108.003 35.0252C108.382 30.2407 108.837 25.4648 109.31 20.689C109.369 20.0899 109.429 19.4908 109.488 18.8917C109.938 14.3415 110.39 9.79154 110.893 5.24693C110.914 5.0639 110.934 4.88086 110.954 4.69228C111.261 1.91902 111.261 1.91902 111.56 0.720642ZM113.339 11.6473C113.194 13.3295 113.049 15.0117 112.905 16.6941C112.856 17.2664 112.806 17.8387 112.757 18.411C112.686 19.2335 112.615 20.056 112.545 20.8785C112.523 21.1345 112.501 21.3905 112.478 21.6542C112.457 21.8933 112.437 22.1323 112.416 22.3786C112.398 22.5885 112.38 22.7984 112.361 23.0147C112.326 23.5443 112.323 24.0759 112.323 24.6067C112.994 24.6067 113.664 24.6067 114.356 24.6067C114.209 20.2774 113.939 15.9652 113.593 11.6473C113.509 11.6473 113.426 11.6473 113.339 11.6473Z" fill="black"/>
<path d="M16.1673 0.695801C16.5454 0.697497 16.9236 0.700536 17.3018 0.704734C17.4946 0.705881 17.6873 0.707027 17.886 0.708208C18.3636 0.711212 18.8412 0.71577 19.3188 0.720616C19.7498 5.1183 20.1805 9.51601 20.6109 13.9138C20.8107 15.9556 21.0107 17.9974 21.2108 20.0392C21.3852 21.8184 21.5594 23.5976 21.7335 25.3768C21.8256 26.3193 21.9179 27.2618 22.0104 28.2042C22.1135 29.2551 22.2162 30.3059 22.3189 31.3568C22.3498 31.671 22.3807 31.9852 22.4125 32.3089C22.4403 32.594 22.4681 32.8791 22.4968 33.1728C22.5211 33.4215 22.5455 33.6703 22.5706 33.9266C22.6222 34.5169 22.6222 34.5169 22.6222 35.0251C21.2805 35.0251 19.9388 35.0251 18.5565 35.0251C18.2943 32.8953 18.2766 30.8151 18.3024 28.6724C17.4638 28.6724 16.6252 28.6724 15.7613 28.6724C15.7459 28.9607 15.7305 29.2489 15.7146 29.5459C15.6932 29.9324 15.6716 30.3188 15.6501 30.7053C15.6351 30.9888 15.6351 30.9888 15.6198 31.278C15.5487 32.5367 15.422 33.7757 15.2531 35.0251C14.0791 35.0251 12.9051 35.0251 11.6956 35.0251C12.3585 27.8174 13.0422 20.6119 13.7518 13.4086C13.8809 12.0973 14.0087 10.7858 14.1362 9.47436C14.2359 8.45109 14.3367 7.42792 14.4377 6.40477C14.4854 5.9199 14.5327 5.43499 14.5796 4.95005C14.6441 4.28421 14.71 3.61853 14.7763 2.95287C14.7952 2.75472 14.814 2.55658 14.8335 2.35243C14.9979 0.727542 14.9979 0.727542 16.1673 0.695801ZM17.0318 11.9013C16.6964 16.0941 16.361 20.2869 16.0154 24.6067C16.6862 24.6067 17.3571 24.6067 18.0482 24.6067C17.7967 20.4139 17.5451 16.2212 17.2859 11.9013C17.2021 11.9013 17.1182 11.9013 17.0318 11.9013Z" fill="black"/>
<path d="M142.196 0.7524C143.625 1.85157 144.154 3.28941 144.416 5.03414C144.587 6.48685 144.625 7.91439 144.61 9.37617C144.609 9.59613 144.608 9.81608 144.607 10.0427C144.604 10.5776 144.599 11.1124 144.595 11.6473C143.421 11.6473 142.247 11.6473 141.037 11.6473C141.025 11.1975 141.012 10.7478 140.999 10.2844C140.98 9.69579 140.961 9.10717 140.942 8.51856C140.934 8.22195 140.926 7.92535 140.918 7.61975C140.908 7.33559 140.898 7.05144 140.888 6.75867C140.88 6.49652 140.872 6.23437 140.864 5.96427C140.827 5.23652 140.827 5.23652 140.275 4.53225C139.629 4.44752 139.629 4.44752 139.004 4.53225C138.425 5.11187 138.64 6.27179 138.637 7.05018C138.736 11.0923 140.521 14.8974 142.058 18.5652C143.811 22.7728 145.66 27.6837 144.198 32.2458C143.534 33.8217 142.572 34.6711 141.037 35.3745C139.382 35.7193 137.935 35.616 136.463 34.771C135.063 33.5751 134.517 32.2655 134.367 30.4511C134.324 29.567 134.295 28.6838 134.271 27.799C134.262 27.4919 134.252 27.1848 134.242 26.8684C134.218 26.1146 134.197 25.3607 134.176 24.6067C135.434 24.6067 136.692 24.6067 137.988 24.6067C137.997 25.0565 138.007 25.5062 138.017 25.9696C138.033 26.5582 138.05 27.1468 138.067 27.7354C138.073 28.032 138.079 28.3286 138.085 28.6342C138.094 28.9184 138.103 29.2026 138.112 29.4953C138.122 29.8886 138.122 29.8886 138.132 30.2897C138.254 31.0349 138.418 31.2662 139.004 31.7217C139.759 31.4702 139.759 31.4702 140.529 31.2135C140.557 30.5726 140.577 29.9331 140.592 29.2918C140.601 29.1177 140.609 28.9436 140.618 28.7643C140.683 25.1271 138.995 21.6599 137.607 18.3811C133.359 8.34685 133.359 8.34685 135.193 3.0076C135.666 2.055 136.252 1.39227 137.098 0.736519C138.767 0.229915 140.533 0.227108 142.196 0.7524Z" fill="black"/>
<path d="M29.4996 0.371251C29.9521 0.368303 29.9521 0.368303 30.4138 0.365295C31.517 0.496908 32.177 0.830614 32.9171 1.65866C34.337 3.91814 34.3866 6.27564 34.3435 8.88385C34.3412 9.15114 34.3389 9.41843 34.3365 9.69382C34.3306 10.345 34.3215 10.9961 34.3117 11.6473C33.1378 11.6473 31.9638 11.6473 30.7542 11.6473C30.7418 11.1975 30.7293 10.7478 30.7165 10.2844C30.6974 9.6958 30.6782 9.10718 30.6589 8.51857C30.6511 8.22197 30.6432 7.92536 30.6351 7.61977C30.6253 7.33561 30.6155 7.05145 30.6053 6.75868C30.5973 6.49653 30.5894 6.23438 30.5811 5.96428C30.5441 5.23654 30.5441 5.23654 29.9919 4.53226C29.4888 4.61612 28.9856 4.69997 28.4673 4.78637C27.4935 9.83204 30.496 15.5407 32.2893 20.1272C34.5165 25.886 34.5165 25.886 34.4229 28.6248C34.419 28.8073 34.4151 28.9897 34.4111 29.1776C34.3287 31.4403 33.8223 32.9708 32.2471 34.6182C31.1265 35.5754 29.9834 35.5719 28.5784 35.5016C27.0386 35.3202 26.1782 34.783 25.1003 33.6752C23.9133 31.8522 24.0858 29.9015 24.1157 27.799C24.118 27.4919 24.1203 27.1848 24.1226 26.8684C24.1286 26.1145 24.1377 25.3606 24.1474 24.6067C25.3214 24.6067 26.4954 24.6067 27.7049 24.6067C27.7144 25.0565 27.7239 25.5062 27.7337 25.9696C27.7504 26.5582 27.7673 27.1468 27.7843 27.7354C27.7901 28.0321 27.7958 28.3287 27.8017 28.6343C27.8107 28.9184 27.8197 29.2026 27.829 29.4953C27.839 29.8886 27.839 29.8886 27.8492 30.2897C27.9083 30.9651 27.9083 30.9651 28.3066 31.4361C28.7298 31.7931 28.7298 31.7931 29.3884 31.6582C29.9744 31.5242 29.9744 31.5242 30.246 31.2135C30.6541 26.0839 28.879 21.9217 26.872 17.3144C25.4606 14.059 24.3591 10.9596 24.338 7.39097C24.3328 7.17347 24.3275 6.95597 24.3221 6.73188C24.311 4.89898 24.6396 3.33106 25.6244 1.76884C26.7859 0.640569 27.9079 0.360859 29.4996 0.371251Z" fill="black"/>
<path d="M97.3306 0.720642C100.769 0.720642 104.207 0.720642 107.749 0.720642C108.026 1.5508 107.993 2.03367 107.908 2.89644C107.873 3.26642 107.873 3.26642 107.838 3.64387C107.749 4.27815 107.749 4.27815 107.495 4.78636C105.398 4.78636 103.302 4.78636 101.142 4.78636C101.142 8.14058 101.142 11.4948 101.142 14.9507C102.652 14.9507 104.161 14.9507 105.716 14.9507C105.494 17.9047 105.494 17.9047 105.208 18.7623C103.866 18.7623 102.525 18.7623 101.142 18.7623C101.142 22.8712 101.142 26.9801 101.142 31.2135C102.819 31.2135 104.496 31.2135 106.224 31.2135C106.14 32.4714 106.057 33.7292 105.97 35.0252C103.119 35.0252 100.268 35.0252 97.3306 35.0252C97.3306 23.7047 97.3306 12.3842 97.3306 0.720642Z" fill="black"/>
<path d="M1.27808 0.720642C4.96772 0.720642 8.65736 0.720642 12.4588 0.720642C12.3749 1.97847 12.2911 3.23631 12.2047 4.53225C9.85674 4.53225 7.50879 4.53225 5.08969 4.53225C5.08969 8.13804 5.08969 11.7438 5.08969 15.4589C7.10222 15.4589 9.11475 15.4589 11.1883 15.4589C11.1883 17.7458 11.1883 17.7458 10.9342 19.2705C9.00548 19.2705 7.07681 19.2705 5.08969 19.2705C5.09102 19.7387 5.09235 20.2069 5.09372 20.6894C5.09781 22.233 5.10073 23.7767 5.10285 25.3204C5.10418 26.2567 5.10599 27.193 5.10886 28.1293C5.11161 29.0322 5.11314 29.9351 5.1138 30.838C5.11427 31.1832 5.11519 31.5284 5.11655 31.8735C5.11839 32.3555 5.11851 32.8374 5.11854 33.3193C5.1191 33.5941 5.11966 33.8689 5.12025 34.152C5.08969 34.771 5.08969 34.771 4.83558 35.0252C3.6616 35.0252 2.48763 35.0252 1.27808 35.0252C1.27808 23.7047 1.27808 12.3842 1.27808 0.720642Z" fill="black"/>
<path d="M50.8284 0.720642C52.0862 0.720642 53.344 0.720642 54.64 0.720642C54.64 12.0411 54.64 23.3616 54.64 35.0252C53.3821 35.0252 52.1243 35.0252 50.8284 35.0252C50.8284 23.7047 50.8284 12.3842 50.8284 0.720642Z" fill="black"/>
</g>
<defs>
<clipPath id="clip0_0_149">
<rect width="144.079" height="35.0668" fill="white" transform="translate(0.769775 0.466553)"/>
</clipPath>
</defs>
</svg>
