<svg width="57" height="61" viewBox="0 0 57 61" fill="none" xmlns="http://www.w3.org/2000/svg">
<path d="M28.5 5.02539C23.4626 5.03138 18.6332 7.15112 15.0712 10.9196C11.5093 14.688 9.50566 19.7974 9.5 25.1268C9.5 33.3056 15.1121 40.0974 21.0568 47.2862C22.9378 49.5627 24.8853 51.917 26.619 54.2991C26.8409 54.6036 27.1258 54.8501 27.4519 55.0198C27.778 55.1895 28.1366 55.2777 28.5 55.2777C28.8634 55.2777 29.222 55.1895 29.5481 55.0198C29.8742 54.8501 30.1591 54.6036 30.381 54.2991C32.1148 51.917 34.0623 49.5627 35.9433 47.2862C41.8879 40.0974 47.5 33.3056 47.5 25.1268C47.4944 19.7974 45.4908 14.688 41.9288 10.9196C38.3668 7.15112 33.5374 5.03138 28.5 5.02539ZM28.5 32.6649C27.0908 32.6649 25.7133 32.2228 24.5416 31.3945C23.3699 30.5662 22.4566 29.3889 21.9174 28.0115C21.3781 26.6341 21.237 25.1185 21.5119 23.6562C21.7868 22.194 22.4654 20.8508 23.4619 19.7966C24.4583 18.7424 25.7279 18.0245 27.11 17.7336C28.4921 17.4428 29.9247 17.5921 31.2266 18.1626C32.5285 18.7331 33.6413 19.6993 34.4242 20.9389C35.2071 22.1785 35.625 23.636 35.625 25.1268C35.625 27.126 34.8743 29.0434 33.5381 30.457C32.2019 31.8707 30.3897 32.6649 28.5 32.6649Z" fill="white"/>
</svg>
