<svg width="33" height="34" viewBox="0 0 33 34" fill="none" xmlns="http://www.w3.org/2000/svg">
<path d="M16.0683 2.8335C13.2282 2.83687 10.5053 4.032 8.49705 6.15668C6.48879 8.28136 5.35915 11.1621 5.35596 14.1668C5.35596 18.7781 8.52011 22.6073 11.8717 26.6604C12.9323 27.9439 14.0303 29.2713 15.0078 30.6143C15.1329 30.786 15.2935 30.925 15.4774 31.0207C15.6612 31.1163 15.8634 31.1661 16.0683 31.1661C16.2732 31.1661 16.4753 31.1163 16.6592 31.0207C16.8431 30.925 17.0037 30.786 17.1288 30.6143C18.1063 29.2713 19.2043 27.9439 20.2648 26.6604C23.6165 22.6073 26.7806 18.7781 26.7806 14.1668C26.7774 11.1621 25.6478 8.28136 23.6395 6.15668C21.6313 4.032 18.9084 2.83687 16.0683 2.8335ZM16.0683 18.4168C15.2738 18.4168 14.4971 18.1676 13.8365 17.7006C13.1759 17.2336 12.661 16.5698 12.3569 15.7932C12.0529 15.0166 11.9733 14.1621 12.1284 13.3377C12.2834 12.5133 12.6659 11.756 13.2278 11.1616C13.7896 10.5673 14.5053 10.1625 15.2846 9.99849C16.0638 9.83451 16.8715 9.91867 17.6056 10.2403C18.3396 10.562 18.967 11.1067 19.4084 11.8057C19.8498 12.5046 20.0854 13.3263 20.0854 14.1668C20.0854 15.294 19.6622 16.375 18.9088 17.172C18.1555 17.9691 17.1337 18.4168 16.0683 18.4168Z" fill="#2D69D1"/>
</svg>
