<svg width="57" height="57" viewBox="0 0 57 57" fill="none" xmlns="http://www.w3.org/2000/svg">
<path d="M28.5002 26.3803L51.2646 11.7562C50.3494 11.0698 49.238 10.6952 48.094 10.6875H8.90646C7.76243 10.6952 6.65106 11.0698 5.73584 11.7562L28.5002 26.3803Z" fill="#E7E7E7"/>
<path d="M29.4619 29.9963L29.1591 30.1388H29.0166C28.8525 30.212 28.6784 30.2601 28.5 30.2813C28.3521 30.2999 28.2025 30.2999 28.0547 30.2813H27.9122L27.6094 30.1388L3.74062 14.7131C3.62659 15.1434 3.56675 15.5862 3.5625 16.0313V40.9688C3.5625 42.386 4.1255 43.7452 5.12765 44.7474C6.1298 45.7495 7.489 46.3125 8.90625 46.3125H48.0938C49.511 46.3125 50.8702 45.7495 51.8724 44.7474C52.8745 43.7452 53.4375 42.386 53.4375 40.9688V16.0313C53.4333 15.5862 53.3734 15.1434 53.2594 14.7131L29.4619 29.9963Z" fill="white"/>
</svg>
