<svg width="157" height="146" viewBox="0 0 157 146" fill="none" xmlns="http://www.w3.org/2000/svg">
<path d="M144.025 73.6348C144.025 108.693 114.979 137.113 79.1487 137.113C43.3187 137.113 14.2727 108.693 14.2727 73.6348C14.2727 38.5767 43.3187 10.1565 79.1487 10.1565C114.979 10.1565 144.025 38.5767 144.025 73.6348Z" fill="#7188E5" fill-opacity="0.71"/>
<path d="M144.025 73.6348C144.025 108.693 114.979 137.113 79.1487 137.113C43.3187 137.113 14.2727 108.693 14.2727 73.6348C14.2727 38.5767 43.3187 10.1565 79.1487 10.1565C114.979 10.1565 144.025 38.5767 144.025 73.6348Z" fill="#7188E5" fill-opacity="0.71"/>
<path d="M144.025 73.6348C144.025 108.693 114.979 137.113 79.1487 137.113C43.3187 137.113 14.2727 108.693 14.2727 73.6348C14.2727 38.5767 43.3187 10.1565 79.1487 10.1565C114.979 10.1565 144.025 38.5767 144.025 73.6348Z" fill="#7188E5" fill-opacity="0.71"/>
<ellipse cx="79.1487" cy="73.6348" rx="50.6033" ry="48.2435" fill="#0055C4" fill-opacity="0.61"/>
<path d="M21.9363 74.2597C21.9363 88.9382 27.8956 103.015 38.5034 113.395C49.1112 123.774 63.4984 129.605 78.5001 129.605C93.5018 129.605 107.889 123.774 118.497 113.395C129.104 103.015 135.064 88.9382 135.064 74.2597C135.064 59.5815 129.104 45.5042 118.497 35.125C107.889 24.7458 93.5018 18.9148 78.5001 18.9148C63.4984 18.9148 49.1112 24.7458 38.5034 35.125C27.8956 45.5042 21.9363 59.5815 21.9363 74.2597Z" stroke="white" stroke-width="2" stroke-linecap="round" stroke-linejoin="round"/>
<path d="M63.4163 92.044C63.4176 93.5887 63.8733 95.101 64.729 96.3993C65.5847 97.6975 66.8043 98.7277 68.242 99.3663C69.68 100.005 71.2749 100.225 72.837 100C74.3992 99.7756 75.8623 99.1163 77.0519 98.1L104.896 74.2696L77.0519 50.4245C75.8633 49.4063 74.3997 48.7447 72.837 48.5191C71.2739 48.2933 69.6775 48.5132 68.2391 49.1521C66.8005 49.791 65.5806 50.822 64.7252 52.1217C63.8699 53.4214 63.4155 54.9347 63.4163 56.4805V92.044Z" stroke="white" stroke-width="2" stroke-linecap="round" stroke-linejoin="round"/>
</svg>
