<svg width="86" height="85" viewBox="0 0 86 85" fill="none" xmlns="http://www.w3.org/2000/svg">
<path d="M75.25 23.9062H10.75C6.2972 23.9062 2.6875 27.474 2.6875 31.875V74.375C2.6875 78.776 6.2972 82.3438 10.75 82.3438H75.25C79.7028 82.3438 83.3125 78.776 83.3125 74.375V31.875C83.3125 27.474 79.7028 23.9062 75.25 23.9062Z" fill="#2D69D1"/>
<path d="M79.6306 78.3594H15.1306C12.9923 78.3594 10.9416 77.5198 9.42958 76.0254C7.91756 74.531 7.06813 72.5041 7.06813 70.3907V27.8907C7.06683 26.7024 7.34272 25.5299 7.87438 24.4641C6.35411 25.0377 5.04506 26.0526 4.11929 27.3753C3.19353 28.6981 2.69439 30.2667 2.6875 31.875V74.375C2.6875 76.4885 3.53694 78.5154 5.04895 80.0098C6.56096 81.5042 8.61169 82.3438 10.75 82.3438H75.25C76.7651 82.3345 78.2469 81.9035 79.5255 81.1002C80.8042 80.2968 81.8279 79.1536 82.4794 77.8016C81.5735 78.1623 80.6072 78.3515 79.6306 78.3594Z" fill="white"/>
<path d="M75.2499 23.9062H10.7499C9.21698 23.9126 7.71764 24.3508 6.42768 25.1694C5.13773 25.988 4.11063 27.1531 3.4668 28.5281L40.9305 65.5563C41.4797 66.098 42.224 66.4023 42.9999 66.4023C43.7759 66.4023 44.5201 66.098 45.0693 65.5563L82.533 28.5281C81.8892 27.1531 80.8621 25.988 79.5722 25.1694C78.2822 24.3508 76.7829 23.9126 75.2499 23.9062Z" fill="#96D7FF"/>
<path d="M82.802 77.0313L56.7064 51.3188C56.4386 51.0481 56.1187 50.833 55.7657 50.6862C55.4126 50.5394 55.0335 50.4637 54.6504 50.4637C54.2674 50.4637 53.8882 50.5394 53.5352 50.6862C53.1821 50.833 52.8623 51.0481 52.5945 51.3188L43.0001 60.775L33.4057 51.3188C33.1379 51.0481 32.8181 50.833 32.4651 50.6862C32.112 50.5394 31.7328 50.4637 31.3498 50.4637C30.9668 50.4637 30.5876 50.5394 30.2345 50.6862C29.8815 50.833 29.5617 51.0481 29.2939 51.3188L3.19824 77.0313C3.75116 78.5771 4.77304 79.9167 6.12452 80.8674C7.47601 81.8181 9.0913 82.3337 10.7501 82.3438H75.2501C76.9089 82.3337 78.5242 81.8181 79.8757 80.8674C81.2272 79.9167 82.2491 78.5771 82.802 77.0313Z" fill="white"/>
<path d="M76.8895 82.1578L77.642 81.9719L78.1258 81.786C78.3275 81.7179 78.5249 81.6381 78.717 81.5469L79.2008 81.2813L79.7383 80.9625L80.1683 80.6438L80.6252 80.2453C80.7781 80.1426 80.914 80.0171 81.0283 79.8735L81.4314 79.4219C81.5559 79.2868 81.6725 79.1449 81.7808 78.9969L82.1302 78.4657L82.372 78.0141V77.8281C81.4702 78.1675 80.515 78.3473 79.5502 78.3594H15.0501C13.3545 78.3526 11.7043 77.8176 10.334 76.8304C8.96374 75.8433 7.94324 74.4543 7.41762 72.861L3.19824 77.0313C3.33262 77.35 3.49387 77.6953 3.65512 78.0141C3.6696 78.0842 3.6696 78.1565 3.65512 78.2266L4.21949 79.0766L4.40762 79.2891C4.7898 79.7509 5.22242 80.1696 5.69762 80.5375C5.7995 80.6325 5.90721 80.7212 6.02012 80.8031L6.55762 81.1219L7.25637 81.5203L7.79387 81.7328L8.70762 81.9985H9.1645C9.67704 82.1762 10.2094 82.2922 10.7501 82.3438H75.2502C75.6612 82.3843 76.0753 82.3843 76.4864 82.3438C76.6269 82.2957 76.762 82.2334 76.8895 82.1578Z" fill="#2D69D1"/>
<path d="M73.073 23.9062H12.9268V37.9047L40.9305 65.5563C41.4797 66.098 42.224 66.4023 42.9999 66.4023C43.7758 66.4023 44.5201 66.098 45.0693 65.5563L73.073 37.9047V23.9062Z" fill="#86C3EF"/>
<path d="M69.875 10.625V41.0391L45.0694 65.5562C44.5202 66.098 43.7759 66.4023 43 66.4023C42.2241 66.4023 41.4798 66.098 40.9306 65.5562L16.125 41.0391V10.625C16.125 8.51155 16.9744 6.48467 18.4865 4.99024C19.9985 3.49581 22.0492 2.65625 24.1875 2.65625H61.8125C63.9508 2.65625 66.0015 3.49581 67.5135 4.99024C69.0256 6.48467 69.875 8.51155 69.875 10.625Z" fill="#EEF5FD"/>
<path d="M19.4844 43.8016V13.2813C19.4844 11.1678 20.3338 9.14096 21.8458 7.64653C23.3578 6.1521 25.4086 5.31254 27.5469 5.31254H65.1719C66.3045 5.31413 67.4232 5.55883 68.4506 6.02973C67.7012 4.98026 66.7062 4.12541 65.5503 3.53803C64.3945 2.95065 63.1121 2.64814 61.8125 2.65629H24.1875C22.0492 2.65629 19.9985 3.49585 18.4865 4.99028C16.9744 6.48471 16.125 8.51159 16.125 10.625V41.0391L40.9306 65.5563C41.2868 65.887 41.721 66.1245 42.1938 66.2469L19.4844 43.8016Z" fill="#D7E2F2"/>
<path d="M57.2705 19.6031H30.3955C29.6827 19.6031 28.9992 19.3233 28.4952 18.8251C27.9912 18.327 27.708 17.6514 27.708 16.9469C27.708 16.2424 27.9912 15.5668 28.4952 15.0686C28.9992 14.5705 29.6827 14.2906 30.3955 14.2906H57.2705C57.9833 14.2906 58.6668 14.5705 59.1708 15.0686C59.6748 15.5668 59.958 16.2424 59.958 16.9469C59.958 17.6514 59.6748 18.327 59.1708 18.8251C58.6668 19.3233 57.9833 19.6031 57.2705 19.6031ZM57.2705 30.3344H30.3955C29.6827 30.3344 28.9992 30.0545 28.4952 29.5564C27.9912 29.0583 27.708 28.3826 27.708 27.6781C27.708 26.9737 27.9912 26.298 28.4952 25.7999C28.9992 25.3017 29.6827 25.0219 30.3955 25.0219H57.2705C57.9833 25.0219 58.6668 25.3017 59.1708 25.7999C59.6748 26.298 59.958 26.9737 59.958 27.6781C59.958 28.3826 59.6748 29.0583 59.1708 29.5564C58.6668 30.0545 57.9833 30.3344 57.2705 30.3344ZM57.2705 41.0656H30.3955C29.6827 41.0656 28.9992 40.7858 28.4952 40.2876C27.9912 39.7895 27.708 39.1139 27.708 38.4094C27.708 37.7049 27.9912 37.0293 28.4952 36.5311C28.9992 36.033 29.6827 35.7531 30.3955 35.7531H57.2705C57.9833 35.7531 58.6668 36.033 59.1708 36.5311C59.6748 37.0293 59.958 37.7049 59.958 38.4094C59.958 39.1139 59.6748 39.7895 59.1708 40.2876C58.6668 40.7858 57.9833 41.0656 57.2705 41.0656Z" fill="#D7E2F2"/>
<path d="M56.4375 18.5938H29.5625C28.8497 18.5938 28.1662 18.3139 27.6622 17.8158C27.1581 17.3176 26.875 16.642 26.875 15.9375C26.875 15.233 27.1581 14.5574 27.6622 14.0592C28.1662 13.5611 28.8497 13.2812 29.5625 13.2813H56.4375C57.1503 13.2813 57.8338 13.5611 58.3379 14.0592C58.8419 14.5574 59.125 15.233 59.125 15.9375C59.125 16.642 58.8419 17.3176 58.3379 17.8158C57.8338 18.3139 57.1503 18.5938 56.4375 18.5938ZM56.4375 29.2188H29.5625C28.8497 29.2188 28.1662 28.9389 27.6622 28.4408C27.1581 27.9426 26.875 27.267 26.875 26.5625C26.875 25.858 27.1581 25.1824 27.6622 24.6842C28.1662 24.1861 28.8497 23.9062 29.5625 23.9062H56.4375C57.1503 23.9062 57.8338 24.1861 58.3379 24.6842C58.8419 25.1824 59.125 25.858 59.125 26.5625C59.125 27.267 58.8419 27.9426 58.3379 28.4408C57.8338 28.9389 57.1503 29.2188 56.4375 29.2188ZM56.4375 39.8438H29.5625C28.8497 39.8438 28.1662 39.5639 27.6622 39.0658C27.1581 38.5676 26.875 37.892 26.875 37.1875C26.875 36.483 27.1581 35.8074 27.6622 35.3092C28.1662 34.8111 28.8497 34.5312 29.5625 34.5312H56.4375C57.1503 34.5312 57.8338 34.8111 58.3379 35.3092C58.8419 35.8074 59.125 36.483 59.125 37.1875C59.125 37.892 58.8419 38.5676 58.3379 39.0658C57.8338 39.5639 57.1503 39.8438 56.4375 39.8438Z" fill="#2D69D1"/>
</svg>
