<svg width="86" height="85" viewBox="0 0 86 85" fill="none" xmlns="http://www.w3.org/2000/svg">
<path d="M9.40625 14.6094C7.98071 14.6094 6.61356 15.1691 5.60555 16.1654C4.59754 17.1617 4.03125 18.5129 4.03125 19.9219V67.7344C4.03125 69.1433 4.59754 70.4946 5.60555 71.4909C6.61356 72.4872 7.98071 73.0469 9.40625 73.0469H29.9925C31.9621 73.0476 33.9074 73.4763 35.6908 74.3025C37.4742 75.1287 39.052 76.3323 40.3125 77.8281L43 81.0156V14.6094H9.40625ZM76.5938 14.6094C78.0193 14.6094 79.3864 15.1691 80.3944 16.1654C81.4025 17.1617 81.9688 18.5129 81.9688 19.9219V67.7344C81.9688 69.1433 81.4025 70.4946 80.3944 71.4909C79.3864 72.4872 78.0193 73.0469 76.5938 73.0469H56.0075C54.0379 73.0476 52.0926 73.4763 50.3092 74.3025C48.5258 75.1287 46.948 76.3323 45.6875 77.8281L43 81.0156V14.6094H76.5938Z" fill="#2D69D1"/>
<path d="M68.6535 13.5227V21.4915C68.6535 23.2527 67.9457 24.9417 66.6857 26.1871C65.4257 27.4324 63.7167 28.1321 61.9348 28.1321H33.931L27.2123 32.8735C26.8103 33.1564 26.3372 33.3244 25.8449 33.3592C25.3526 33.3939 24.8601 33.294 24.4215 33.0704C23.9829 32.8467 23.6151 32.5081 23.3583 32.0915C23.1016 31.6749 22.9659 31.1964 22.966 30.7086V28.0524C21.4394 27.7444 20.0685 26.9216 19.0879 25.7248C18.1074 24.5279 17.5783 23.0314 17.591 21.4915V13.5227H68.6535Z" fill="#00AFAC"/>
<path d="M64.5 6.64062V22.5781C64.5 23.2826 64.2169 23.9582 63.7129 24.4564C63.2088 24.9545 62.5253 25.2344 61.8125 25.2344H32.5188L26.875 29.2188V25.2344H24.1875C23.4747 25.2344 22.7912 24.9545 22.2872 24.4564C21.7831 23.9582 21.5 23.2826 21.5 22.5781V6.64062C21.5 5.93614 21.7831 5.26052 22.2872 4.76237C22.7912 4.26423 23.4747 3.98438 24.1875 3.98438H61.8125C62.5253 3.98438 63.2088 4.26423 63.7129 4.76237C64.2169 5.26052 64.5 5.93614 64.5 6.64062Z" fill="white"/>
<path d="M56.0075 74.375H76.5938C78.3757 74.375 80.0846 73.6754 81.3446 72.43C82.6046 71.1846 83.3125 69.4956 83.3125 67.7344V19.9219C83.3125 18.1607 82.6046 16.4716 81.3446 15.2262C80.0846 13.9809 78.3757 13.2812 76.5938 13.2812H65.8438V6.64062C65.8438 5.5839 65.419 4.57046 64.663 3.82325C63.907 3.07603 62.8817 2.65625 61.8125 2.65625H24.1875C23.1183 2.65625 22.093 3.07603 21.337 3.82325C20.581 4.57046 20.1562 5.5839 20.1562 6.64062V13.2812H9.40625C7.62433 13.2812 5.91539 13.9809 4.65538 15.2262C3.39537 16.4716 2.6875 18.1607 2.6875 19.9219V67.7344C2.6875 69.4956 3.39537 71.1846 4.65538 72.43C5.91539 73.6754 7.62433 74.375 9.40625 74.375H29.9925C31.7647 74.376 33.5149 74.762 35.1195 75.5056C36.724 76.2492 38.1436 77.3323 39.2778 78.6781L40.1378 79.6875H6.71875C6.36237 79.6875 6.02058 79.5476 5.76858 79.2985C5.51657 79.0494 5.375 78.7116 5.375 78.3594V77.0312C5.375 76.679 5.23343 76.3412 4.98142 76.0921C4.72942 75.843 4.38763 75.7031 4.03125 75.7031C3.67487 75.7031 3.33308 75.843 3.08108 76.0921C2.82907 76.3412 2.6875 76.679 2.6875 77.0312V78.3594C2.6875 79.4161 3.11222 80.4295 3.86823 81.1768C4.62423 81.924 5.6496 82.3438 6.71875 82.3438H79.2812C80.3504 82.3438 81.3758 81.924 82.1318 81.1768C82.8878 80.4295 83.3125 79.4161 83.3125 78.3594V77.0312C83.3125 76.679 83.1709 76.3412 82.9189 76.0921C82.6669 75.843 82.3251 75.7031 81.9688 75.7031C81.6124 75.7031 81.2706 75.843 81.0186 76.0921C80.7666 76.3412 80.625 76.679 80.625 77.0312V78.3594C80.625 78.7116 80.4834 79.0494 80.2314 79.2985C79.9794 79.5476 79.6376 79.6875 79.2812 79.6875H45.8622L46.7222 78.6781C47.8564 77.3323 49.276 76.2492 50.8805 75.5056C52.4851 74.762 54.2353 74.376 56.0075 74.375ZM22.8438 6.64062C22.8438 6.28838 22.9853 5.95057 23.2373 5.7015C23.4893 5.45243 23.8311 5.3125 24.1875 5.3125H61.8125C62.1689 5.3125 62.5107 5.45243 62.7627 5.7015C63.0147 5.95057 63.1562 6.28838 63.1562 6.64062V22.5781C63.1562 22.9304 63.0147 23.2682 62.7627 23.5173C62.5107 23.7663 62.1689 23.9062 61.8125 23.9062H32.25C31.9593 23.9062 31.6763 23.9995 31.4438 24.1719L28.2188 26.5625V25.2344C28.2188 24.8821 28.0772 24.5443 27.8252 24.2952C27.5732 24.0462 27.2314 23.9062 26.875 23.9062H24.1875C23.8311 23.9062 23.4893 23.7663 23.2373 23.5173C22.9853 23.2682 22.8438 22.9304 22.8438 22.5781V6.64062ZM41.6562 77.35L41.3472 77.0312C39.9655 75.3758 38.2318 74.0416 36.2693 73.1234C34.3068 72.2052 32.1637 71.7256 29.9925 71.7188H9.40625C8.3371 71.7188 7.31173 71.299 6.55573 70.5518C5.79972 69.8045 5.375 68.7911 5.375 67.7344V19.9219C5.375 18.8652 5.79972 17.8517 6.55573 17.1045C7.31173 16.3573 8.3371 15.9375 9.40625 15.9375H20.1562V22.5781C20.1562 23.6348 20.581 24.6483 21.337 25.3955C22.093 26.1427 23.1183 26.5625 24.1875 26.5625H25.5312V29.2188C25.532 29.464 25.6015 29.7043 25.7319 29.9129C25.8624 30.1216 26.0487 30.2904 26.2703 30.4008C26.4557 30.5002 26.6641 30.5505 26.875 30.5469C27.1657 30.5469 27.4487 30.4537 27.6812 30.2812L32.6934 26.5625H41.6562V77.35ZM44.6528 77.0312L44.3438 77.4031V26.5625H61.8125C62.8817 26.5625 63.907 26.1427 64.663 25.3955C65.419 24.6483 65.8438 23.6348 65.8438 22.5781V15.9375H76.5938C77.6629 15.9375 78.6883 16.3573 79.4443 17.1045C80.2003 17.8517 80.625 18.8652 80.625 19.9219V67.7344C80.625 68.7911 80.2003 69.8045 79.4443 70.5518C78.6883 71.299 77.6629 71.7188 76.5938 71.7188H56.0075C53.8363 71.7256 51.6932 72.2052 49.7307 73.1234C47.7682 74.0416 46.0345 75.3758 44.6528 77.0312Z" fill="white"/>
<path d="M12.0938 26.5625H16.125C16.4814 26.5625 16.8232 26.4226 17.0752 26.1735C17.3272 25.9244 17.4688 25.5866 17.4688 25.2344C17.4688 24.8821 17.3272 24.5443 17.0752 24.2952C16.8232 24.0462 16.4814 23.9062 16.125 23.9062H12.0938C11.7374 23.9062 11.3956 24.0462 11.1436 24.2952C10.8916 24.5443 10.75 24.8821 10.75 25.2344C10.75 25.5866 10.8916 25.9244 11.1436 26.1735C11.3956 26.4226 11.7374 26.5625 12.0938 26.5625ZM34.9375 33.2031H12.0938C11.7374 33.2031 11.3956 33.3431 11.1436 33.5921C10.8916 33.8412 10.75 34.179 10.75 34.5312C10.75 34.8835 10.8916 35.2213 11.1436 35.4704C11.3956 35.7194 11.7374 35.8594 12.0938 35.8594H34.9375C35.2939 35.8594 35.6357 35.7194 35.8877 35.4704C36.1397 35.2213 36.2812 34.8835 36.2812 34.5312C36.2812 34.179 36.1397 33.8412 35.8877 33.5921C35.6357 33.3431 35.2939 33.2031 34.9375 33.2031ZM34.9375 42.5H12.0938C11.7374 42.5 11.3956 42.6399 11.1436 42.889C10.8916 43.1381 10.75 43.4759 10.75 43.8281C10.75 44.1804 10.8916 44.5182 11.1436 44.7673C11.3956 45.0163 11.7374 45.1562 12.0938 45.1562H34.9375C35.2939 45.1562 35.6357 45.0163 35.8877 44.7673C36.1397 44.5182 36.2812 44.1804 36.2812 43.8281C36.2812 43.4759 36.1397 43.1381 35.8877 42.889C35.6357 42.6399 35.2939 42.5 34.9375 42.5ZM34.9375 51.7969H12.0938C11.7374 51.7969 11.3956 51.9368 11.1436 52.1859C10.8916 52.4349 10.75 52.7728 10.75 53.125C10.75 53.4772 10.8916 53.8151 11.1436 54.0641C11.3956 54.3132 11.7374 54.4531 12.0938 54.4531H34.9375C35.2939 54.4531 35.6357 54.3132 35.8877 54.0641C36.1397 53.8151 36.2812 53.4772 36.2812 53.125C36.2812 52.7728 36.1397 52.4349 35.8877 52.1859C35.6357 51.9368 35.2939 51.7969 34.9375 51.7969ZM34.9375 61.0938H12.0938C11.7374 61.0938 11.3956 61.2337 11.1436 61.4827C10.8916 61.7318 10.75 62.0696 10.75 62.4219C10.75 62.7741 10.8916 63.1119 11.1436 63.361C11.3956 63.6101 11.7374 63.75 12.0938 63.75H34.9375C35.2939 63.75 35.6357 63.6101 35.8877 63.361C36.1397 63.1119 36.2812 62.7741 36.2812 62.4219C36.2812 62.0696 36.1397 61.7318 35.8877 61.4827C35.6357 61.2337 35.2939 61.0938 34.9375 61.0938ZM69.875 26.5625H73.9062C74.2626 26.5625 74.6044 26.4226 74.8564 26.1735C75.1084 25.9244 75.25 25.5866 75.25 25.2344C75.25 24.8821 75.1084 24.5443 74.8564 24.2952C74.6044 24.0462 74.2626 23.9062 73.9062 23.9062H69.875C69.5186 23.9062 69.1768 24.0462 68.9248 24.2952C68.6728 24.5443 68.5312 24.8821 68.5312 25.2344C68.5312 25.5866 68.6728 25.9244 68.9248 26.1735C69.1768 26.4226 69.5186 26.5625 69.875 26.5625ZM73.9062 33.2031H51.0625C50.7061 33.2031 50.3643 33.3431 50.1123 33.5921C49.8603 33.8412 49.7188 34.179 49.7188 34.5312C49.7188 34.8835 49.8603 35.2213 50.1123 35.4704C50.3643 35.7194 50.7061 35.8594 51.0625 35.8594H73.9062C74.2626 35.8594 74.6044 35.7194 74.8564 35.4704C75.1084 35.2213 75.25 34.8835 75.25 34.5312C75.25 34.179 75.1084 33.8412 74.8564 33.5921C74.6044 33.3431 74.2626 33.2031 73.9062 33.2031ZM73.9062 42.5H51.0625C50.7061 42.5 50.3643 42.6399 50.1123 42.889C49.8603 43.1381 49.7188 43.4759 49.7188 43.8281C49.7188 44.1804 49.8603 44.5182 50.1123 44.7673C50.3643 45.0163 50.7061 45.1562 51.0625 45.1562H73.9062C74.2626 45.1562 74.6044 45.0163 74.8564 44.7673C75.1084 44.5182 75.25 44.1804 75.25 43.8281C75.25 43.4759 75.1084 43.1381 74.8564 42.889C74.6044 42.6399 74.2626 42.5 73.9062 42.5ZM73.9062 51.7969H51.0625C50.7061 51.7969 50.3643 51.9368 50.1123 52.1859C49.8603 52.4349 49.7188 52.7728 49.7188 53.125C49.7188 53.4772 49.8603 53.8151 50.1123 54.0641C50.3643 54.3132 50.7061 54.4531 51.0625 54.4531H73.9062C74.2626 54.4531 74.6044 54.3132 74.8564 54.0641C75.1084 53.8151 75.25 53.4772 75.25 53.125C75.25 52.7728 75.1084 52.4349 74.8564 52.1859C74.6044 51.9368 74.2626 51.7969 73.9062 51.7969ZM73.9062 61.0938H51.0625C50.7061 61.0938 50.3643 61.2337 50.1123 61.4827C49.8603 61.7318 49.7188 62.0696 49.7188 62.4219C49.7188 62.7741 49.8603 63.1119 50.1123 63.361C50.3643 63.6101 50.7061 63.75 51.0625 63.75H73.9062C74.2626 63.75 74.6044 63.6101 74.8564 63.361C75.1084 63.1119 75.25 62.7741 75.25 62.4219C75.25 62.0696 75.1084 61.7318 74.8564 61.4827C74.6044 61.2337 74.2626 61.0938 73.9062 61.0938Z" fill="black"/>
</svg>
