<svg width="74" height="85" viewBox="0 0 74 85" fill="none" xmlns="http://www.w3.org/2000/svg">
<g clip-path="url(#clip0_0_591)">
<path d="M63.6833 25.2759C63.6198 25.2758 63.5564 25.2692 63.4939 25.2559C63.3536 25.2277 63.2196 25.1679 63.0994 25.0801C62.9792 24.9923 62.8753 24.8781 62.7935 24.7441C62.7118 24.6102 62.6538 24.459 62.623 24.2993C62.5921 24.1395 62.589 23.9744 62.6137 23.8133L64.4334 11.9531L54.1138 9.86464C53.847 9.78915 53.6151 9.60005 53.465 9.3356C53.3149 9.07115 53.2579 8.75108 53.3054 8.44016C53.353 8.12924 53.5016 7.85068 53.7212 7.66084C53.9407 7.47099 54.2149 7.38404 54.4882 7.41757L65.8772 9.72353C66.0175 9.7518 66.1516 9.81155 66.2718 9.89937C66.392 9.98719 66.4959 10.1014 66.5776 10.2353C66.6594 10.3693 66.7173 10.5205 66.7482 10.6802C66.779 10.8399 66.7822 11.0051 66.7574 11.1662L64.7499 24.2466C64.706 24.5349 64.575 24.7962 64.3799 24.9845C64.1848 25.1728 63.9381 25.2759 63.6833 25.2759Z" fill="white"/>
<path d="M8.31219 62.5879C8.08603 62.5865 7.86593 62.5038 7.68273 62.3514C7.49952 62.1991 7.36239 61.9848 7.29054 61.7384C7.21868 61.4921 7.2157 61.2261 7.28202 60.9778C7.34834 60.7294 7.48062 60.5111 7.66035 60.3534L65.0393 9.96099C65.1531 9.86234 65.2828 9.79042 65.4209 9.74933C65.559 9.70825 65.7028 9.69881 65.844 9.72155C65.9853 9.74429 66.1212 9.79876 66.2442 9.88186C66.3671 9.96496 66.4746 10.0751 66.5605 10.2059C66.6463 10.3367 66.709 10.4856 66.7447 10.6442C66.7805 10.8028 66.7887 10.968 66.7689 11.1302C66.7491 11.2925 66.7017 11.4487 66.6293 11.5899C66.557 11.7311 66.4612 11.8545 66.3473 11.9532L8.96836 62.3389C8.7795 62.5027 8.54883 62.5902 8.31219 62.5879Z" fill="white"/>
<path d="M14.0918 32.373C21.8745 32.373 28.1836 25.1261 28.1836 16.1865C28.1836 7.24695 21.8745 0 14.0918 0C6.30911 0 0 7.24695 0 16.1865C0 25.1261 6.30911 32.373 14.0918 32.373Z" fill="#2D69D1"/>
<path d="M18.886 16.8141C18.2992 16.067 17.2962 15.3847 15.8046 14.7289L15.1325 14.4334V10.3063C16.2057 10.4445 17.2577 10.7482 18.2602 11.2094C18.3311 11.2416 18.4103 11.2403 18.4804 11.2058C18.5505 11.1713 18.6059 11.1063 18.6345 11.0251L19.4583 8.65107C19.4866 8.57001 19.4859 8.47943 19.4564 8.39895C19.4269 8.31847 19.371 8.25458 19.3008 8.22109C17.974 7.59595 16.5647 7.2328 15.1325 7.14697V5.3208C15.1325 5.23274 15.1021 5.14829 15.0479 5.08602C14.9936 5.02375 14.9201 4.98877 14.8435 4.98877H13.3403C13.2637 4.98877 13.1901 5.02375 13.1359 5.08602C13.0817 5.14829 13.0513 5.23274 13.0513 5.3208V7.2084C11.7346 7.4043 10.6636 7.88906 9.87158 8.64775C9.45169 9.0283 9.11409 9.51523 8.88518 10.0705C8.65627 10.6257 8.54224 11.2343 8.55201 11.8485C8.55201 13.0405 8.86275 14.0582 9.47557 14.8733C10.0884 15.6885 11.0206 16.3559 12.2983 16.9203L13.0571 17.2407V21.5173C12.3928 21.4687 11.7342 21.3475 11.09 21.1554C10.3277 20.9487 9.58653 20.6505 8.87865 20.2655C8.83454 20.2407 8.78564 20.2292 8.73659 20.2321C8.68753 20.235 8.63992 20.2522 8.59826 20.2821C8.55661 20.312 8.52227 20.3536 8.4985 20.403C8.47473 20.4524 8.4623 20.5079 8.4624 20.5644V23.3003C8.46239 23.364 8.47833 23.4263 8.50831 23.4799C8.53829 23.5335 8.58106 23.576 8.6315 23.6024C9.79787 24.2101 11.2851 24.5487 13.0571 24.6102V27.0224C13.0571 27.1104 13.0875 27.1949 13.1417 27.2571C13.1959 27.3194 13.2694 27.3544 13.3461 27.3544H14.8492C14.9259 27.3544 14.9994 27.3194 15.0536 27.2571C15.1078 27.1949 15.1383 27.1104 15.1383 27.0224V24.5022C16.5735 24.2814 17.7023 23.7602 18.4958 22.9517C18.9128 22.5378 19.245 22.0231 19.4686 21.4445C19.6923 20.8659 19.8018 20.2377 19.7893 19.6048C19.8086 18.5764 19.4855 17.5782 18.886 16.8141ZM16.5417 19.8023C16.5417 20.1062 16.5417 20.9927 15.1325 21.3596V18.1073C15.5114 18.2713 15.8641 18.5064 16.176 18.8029C16.2962 18.9286 16.3911 19.0828 16.4542 19.2548C16.5174 19.4268 16.5472 19.6125 16.5417 19.799V19.8023ZM13.0513 10.3942V13.5253C12.7005 13.3611 12.3787 13.1248 12.1017 12.828C11.9928 12.693 11.9081 12.5347 11.8526 12.362C11.797 12.1894 11.7717 12.0059 11.7779 11.822C11.7751 11.6423 11.8074 11.4641 11.8724 11.3006C11.9375 11.1372 12.0336 10.9925 12.1537 10.8773C12.4151 10.6365 12.7229 10.4708 13.0513 10.3942Z" fill="#FFF3DA"/>
<path d="M14.0918 66.7383H2.5293C1.1324 66.7383 0 68.039 0 69.6436V72.9639C0 74.5684 1.1324 75.8691 2.5293 75.8691H14.0918C15.4887 75.8691 16.6211 74.5684 16.6211 72.9639V69.6436C16.6211 68.039 15.4887 66.7383 14.0918 66.7383Z" fill="white"/>
<path d="M14.0918 75.8691H2.5293C1.1324 75.8691 0 77.1699 0 78.7744V82.0947C0 83.6993 1.1324 85 2.5293 85H14.0918C15.4887 85 16.6211 83.6993 16.6211 82.0947V78.7744C16.6211 77.1699 15.4887 75.8691 14.0918 75.8691Z" fill="#2D69D1"/>
<path d="M42.7812 66.7383H31.2188C29.8219 66.7383 28.6895 68.039 28.6895 69.6436V72.9639C28.6895 74.5684 29.8219 75.8691 31.2188 75.8691H42.7812C44.1781 75.8691 45.3105 74.5684 45.3105 72.9639V69.6436C45.3105 68.039 44.1781 66.7383 42.7812 66.7383Z" fill="white"/>
<path d="M42.7812 75.8691H31.2188C29.8219 75.8691 28.6895 77.1699 28.6895 78.7744V82.0947C28.6895 83.6993 29.8219 85 31.2188 85H42.7812C44.1781 85 45.3105 83.6993 45.3105 82.0947V78.7744C45.3105 77.1699 44.1781 75.8691 42.7812 75.8691Z" fill="#2D69D1"/>
<path d="M42.7812 48.4766H31.2188C29.8219 48.4766 28.6895 49.7773 28.6895 51.3818V54.7021C28.6895 56.3067 29.8219 57.6074 31.2188 57.6074H42.7812C44.1781 57.6074 45.3105 56.3067 45.3105 54.7021V51.3818C45.3105 49.7773 44.1781 48.4766 42.7812 48.4766Z" fill="white"/>
<path d="M42.7812 57.6074H31.2188C29.8219 57.6074 28.6895 58.9082 28.6895 60.5127V63.833C28.6895 65.4375 29.8219 66.7383 31.2188 66.7383H42.7812C44.1781 66.7383 45.3105 65.4375 45.3105 63.833V60.5127C45.3105 58.9082 44.1781 57.6074 42.7812 57.6074Z" fill="#2D69D1"/>
<path d="M71.4707 48.4766H59.9082C58.5113 48.4766 57.3789 49.7773 57.3789 51.3818V54.7021C57.3789 56.3067 58.5113 57.6074 59.9082 57.6074H71.4707C72.8676 57.6074 74 56.3067 74 54.7021V51.3818C74 49.7773 72.8676 48.4766 71.4707 48.4766Z" fill="white"/>
<path d="M71.4707 57.6074H59.9082C58.5113 57.6074 57.3789 58.9082 57.3789 60.5127V63.833C57.3789 65.4375 58.5113 66.7383 59.9082 66.7383H71.4707C72.8676 66.7383 74 65.4375 74 63.833V60.5127C74 58.9082 72.8676 57.6074 71.4707 57.6074Z" fill="#2D69D1"/>
<path d="M71.4707 30.2148H59.9082C58.5113 30.2148 57.3789 31.5156 57.3789 33.1201V36.4404C57.3789 38.045 58.5113 39.3457 59.9082 39.3457H71.4707C72.8676 39.3457 74 38.045 74 36.4404V33.1201C74 31.5156 72.8676 30.2148 71.4707 30.2148Z" fill="white"/>
<path d="M71.4707 39.3457H59.9082C58.5113 39.3457 57.3789 40.6464 57.3789 42.251V45.5713C57.3789 47.1758 58.5113 48.4766 59.9082 48.4766H71.4707C72.8676 48.4766 74 47.1758 74 45.5713V42.251C74 40.6464 72.8676 39.3457 71.4707 39.3457Z" fill="#2D69D1"/>
<path d="M71.4707 66.7383H59.9082C58.5113 66.7383 57.3789 68.039 57.3789 69.6436V72.9639C57.3789 74.5684 58.5113 75.8691 59.9082 75.8691H71.4707C72.8676 75.8691 74 74.5684 74 72.9639V69.6436C74 68.039 72.8676 66.7383 71.4707 66.7383Z" fill="white"/>
<path d="M71.4707 75.8691H59.9082C58.5113 75.8691 57.3789 77.1699 57.3789 78.7744V82.0947C57.3789 83.6993 58.5113 85 59.9082 85H71.4707C72.8676 85 74 83.6993 74 82.0947V78.7744C74 77.1699 72.8676 75.8691 71.4707 75.8691Z" fill="#2D69D1"/>
</g>
<defs>
<clipPath id="clip0_0_591">
<rect width="74" height="85" fill="white"/>
</clipPath>
</defs>
</svg>
